<svg xmlns="http://www.w3.org/2000/svg" width="1920" height="1080" viewBox="0 0 1920 1080"><defs><style>.cls-1{fill:#e6e6e6;}.cls-2{opacity:0.54;}.cls-3{fill:#f68b00;}</style></defs><title>forside_portfolio_droplet</title><g id="Layer_1" data-name="Layer 1"><rect class="cls-1" width="1920" height="1080"/></g><g id="Layer_2" data-name="Layer 2"><g class="cls-2"><path class="cls-3" d="M959.94,739.5c-59.73,0-119.19-33.44-159-89.45C773,610.81,761,567.87,770.47,540.66c7.29-21,26-29.78,49.64-40.9,27.64-13,62-29.16,90.81-72,13.4-20,21.81-40,28.57-56,7.38-17.57,12.72-30.26,19.83-30.26l.63,0c6.79.67,9.45,11.85,13.14,27.33,2.68,11.21,6,25.16,11.95,38.87,21.17,48.79,63,67.21,99.88,83.46,30,13.22,55.94,24.64,64.61,49.5,9.45,27.12-2.41,70-30.22,109.1-39.89,56.17-99.44,89.72-159.31,89.74Z"/><path d="M959.32,342h0a5.63,5.63,0,0,1,.58,0c6.43.64,9.06,11.67,12.71,26.94,2.67,11.23,6,25.21,12,39,21.25,49,63.16,67.43,100.14,83.72,29.91,13.18,55.74,24.55,64.34,49.21,9.4,27-2.44,69.61-30.16,108.65a228.14,228.14,0,0,1-66.74,62.68C1022.86,730,991.85,739,960,739h-.06c-31.8,0-62.75-9-92-26.73a227.92,227.92,0,0,1-66.64-62.51c-27.83-39.12-39.75-81.88-30.37-108.93,7.22-20.8,25.83-29.54,49.38-40.62,27.7-13,62.17-29.21,91-72.15,13.43-20,21.85-40,28.62-56.14,7.31-17.39,12.59-29.95,19.37-29.95m0-1c-14,0-20.17,43.88-48.82,86.53-53,78.87-124.46,66.77-140.5,113C748.54,602.35,836.24,740,959.94,740H960c123.64,0,211.58-137.59,190-199.5-19.47-55.86-126.24-44.81-164.5-133C971.4,375,972.33,342.23,960,341c-.23,0-.45,0-.68,0Z"/></g><path d="M781.85,555.94l-2.1,6.36h-2.7l6.87-20.22h3.15L794,562.3h-2.79L789,555.94Zm6.63-2-2-5.82c-.45-1.32-.75-2.52-1-3.69h-.06c-.3,1.2-.63,2.43-1,3.66l-2,5.85Z"/><path d="M796.76,552.31c0-1.71,0-3.18-.12-4.53H799l.09,2.85h.12a4.36,4.36,0,0,1,4-3.18,2.86,2.86,0,0,1,.75.09V550a4,4,0,0,0-.9-.09c-1.86,0-3.18,1.41-3.54,3.39a7.43,7.43,0,0,0-.12,1.23v7.74h-2.61Z"/><path d="M810.47,543.61v4.17h3.78v2h-3.78v7.83c0,1.8.51,2.82,2,2.82a5.87,5.87,0,0,0,1.53-.18l.12,2a6.46,6.46,0,0,1-2.34.36,3.66,3.66,0,0,1-2.85-1.11c-.75-.78-1-2.07-1-3.78v-7.92h-2.25v-2h2.25V544.3Z"/><path d="M817.22,541h2.64v9.06h.06a4.9,4.9,0,0,1,1.89-1.86,5.43,5.43,0,0,1,2.7-.75c2,0,5.07,1.2,5.07,6.21v8.64h-2.64V554c0-2.34-.87-4.32-3.36-4.32a3.79,3.79,0,0,0-3.54,2.64,3.2,3.2,0,0,0-.18,1.26v8.76h-2.64Z"/><path d="M846,558.34c0,1.5,0,2.82.12,4H843.8l-.15-2.37h-.06a5.46,5.46,0,0,1-4.8,2.7c-2.28,0-5-1.26-5-6.36v-8.49h2.64v8c0,2.76.84,4.62,3.24,4.62a3.82,3.82,0,0,0,3.48-2.4,3.86,3.86,0,0,0,.24-1.35v-8.91H846Z"/><path d="M850.4,552.31c0-1.71,0-3.18-.12-4.53h2.31l.09,2.85h.12a4.36,4.36,0,0,1,4-3.18,2.86,2.86,0,0,1,.75.09V550a4,4,0,0,0-.9-.09c-1.86,0-3.18,1.41-3.54,3.39a7.43,7.43,0,0,0-.12,1.23v7.74H850.4Z"/><path d="M883.7,553.42c-.15-2.82-.33-6.21-.3-8.73h-.09c-.69,2.37-1.53,4.89-2.55,7.68l-3.57,9.81h-2l-3.27-9.63c-1-2.85-1.77-5.46-2.34-7.86h-.06c-.06,2.52-.21,5.91-.39,8.94l-.54,8.67h-2.49l1.41-20.22h3.33l3.45,9.78c.84,2.49,1.53,4.71,2,6.81h.09c.51-2,1.23-4.26,2.13-6.81l3.6-9.78h3.33l1.26,20.22h-2.55Z"/><path d="M894,543.7a1.64,1.64,0,0,1-3.27,0,1.61,1.61,0,0,1,1.65-1.65A1.57,1.57,0,0,1,894,543.7Zm-2.94,18.6V547.78h2.64V562.3Z"/><path d="M901.25,543.61v4.17H905v2h-3.78v7.83c0,1.8.51,2.82,2,2.82a5.87,5.87,0,0,0,1.53-.18l.12,2a6.46,6.46,0,0,1-2.34.36,3.66,3.66,0,0,1-2.85-1.11c-.75-.78-1-2.07-1-3.78v-7.92h-2.25v-2h2.25V544.3Z"/><path d="M908,552.31c0-1.71,0-3.18-.12-4.53h2.31l.09,2.85h.12a4.36,4.36,0,0,1,4-3.18,2.86,2.86,0,0,1,.75.09V550a4,4,0,0,0-.9-.09c-1.86,0-3.18,1.41-3.54,3.39a7.43,7.43,0,0,0-.12,1.23v7.74H908Z"/><path d="M925.7,562.3l-.21-1.83h-.09a5.41,5.41,0,0,1-4.44,2.16,4.14,4.14,0,0,1-4.44-4.17c0-3.51,3.12-5.43,8.73-5.4v-.3c0-1.2-.33-3.36-3.3-3.36a7.23,7.23,0,0,0-3.78,1.08l-.6-1.74a9,9,0,0,1,4.77-1.29c4.44,0,5.52,3,5.52,5.94v5.43a20.44,20.44,0,0,0,.24,3.48Zm-.39-7.41c-2.88-.06-6.15.45-6.15,3.27a2.34,2.34,0,0,0,2.49,2.52,3.61,3.61,0,0,0,3.51-2.43,2.76,2.76,0,0,0,.15-.84Z"/><path d="M942.71,542.08h2.61v13.53c0,5.37-2.64,7-6.12,7a8.45,8.45,0,0,1-2.79-.48l.39-2.13a6.23,6.23,0,0,0,2.19.39c2.34,0,3.72-1,3.72-5Z"/><path d="M962.72,554.92c0,5.37-3.72,7.71-7.23,7.71-3.93,0-7-2.88-7-7.47,0-4.86,3.18-7.71,7.2-7.71S962.72,550.48,962.72,554.92Zm-11.52.15c0,3.18,1.83,5.58,4.41,5.58S960,558.28,960,555c0-2.46-1.23-5.58-4.35-5.58S951.2,552.31,951.2,555.07Z"/><path d="M966.05,551.71c0-1.5,0-2.73-.12-3.93h2.34l.15,2.4h.06a5.34,5.34,0,0,1,4.8-2.73c2,0,5.13,1.2,5.13,6.18v8.67h-2.64v-8.37c0-2.34-.87-4.29-3.36-4.29a3.75,3.75,0,0,0-3.54,2.7,3.8,3.8,0,0,0-.18,1.23v8.73h-2.64Z"/><path d="M983.27,547.78l3.18,8.58c.33,1,.69,2.1.93,3h.06c.27-.87.57-2,.93-3l2.88-8.52H994l-4,10.35c-1.89,5-3.18,7.53-5,9.09a7.15,7.15,0,0,1-3.24,1.71l-.66-2.22a7,7,0,0,0,2.31-1.29,8,8,0,0,0,2.22-2.94,1.9,1.9,0,0,0,.21-.63,2.3,2.3,0,0,0-.18-.69l-5.37-13.38Z"/><path d="M1008.68,541v17.55c0,1.29,0,2.76.12,3.75h-2.37l-.12-2.52h-.06a5.37,5.37,0,0,1-5,2.85c-3.51,0-6.21-3-6.21-7.38,0-4.83,3-7.8,6.51-7.8a4.85,4.85,0,0,1,4.38,2.22h.06V541ZM1006,553.69a4.66,4.66,0,0,0-.12-1.11,3.88,3.88,0,0,0-3.81-3.06c-2.73,0-4.35,2.4-4.35,5.61,0,2.94,1.44,5.37,4.29,5.37a4,4,0,0,0,3.87-3.15,4.59,4.59,0,0,0,.12-1.14Z"/><path d="M1016,543.7a1.64,1.64,0,0,1-3.27,0,1.61,1.61,0,0,1,1.65-1.65A1.57,1.57,0,0,1,1016,543.7Zm-2.94,18.6V547.78h2.64V562.3Z"/><path d="M1029.8,555.94l-2.1,6.36H1025l6.87-20.22H1035l6.9,20.22h-2.79l-2.16-6.36Zm6.63-2-2-5.82c-.45-1.32-.75-2.52-1-3.69h-.06c-.3,1.2-.63,2.43-1,3.66l-2,5.85Z"/><path d="M1044.59,562.3c.06-1,.12-2.46.12-3.75V541h2.61v9.12h.06a5.41,5.41,0,0,1,4.95-2.67c3.6,0,6.15,3,6.12,7.41,0,5.19-3.27,7.77-6.51,7.77a5.17,5.17,0,0,1-4.86-2.73H1047l-.12,2.4Zm2.73-5.82a4.94,4.94,0,0,0,.12,1,4.07,4.07,0,0,0,4,3.09c2.76,0,4.41-2.25,4.41-5.58,0-2.91-1.5-5.4-4.32-5.4a4.21,4.21,0,0,0-4,3.24,5.2,5.2,0,0,0-.15,1.08Z"/><path d="M1064.72,543.7a1.64,1.64,0,0,1-3.27,0,1.61,1.61,0,0,1,1.65-1.65A1.57,1.57,0,0,1,1064.72,543.7Zm-2.94,18.6V547.78h2.64V562.3Z"/><path d="M1068.8,541h2.64v21.3h-2.64Z"/><path d="M1088.42,541v17.55c0,1.29,0,2.76.12,3.75h-2.37l-.12-2.52H1086a5.37,5.37,0,0,1-5,2.85c-3.51,0-6.21-3-6.21-7.38,0-4.83,3-7.8,6.51-7.8a4.85,4.85,0,0,1,4.38,2.22h.06V541Zm-2.64,12.69a4.66,4.66,0,0,0-.12-1.11,3.88,3.88,0,0,0-3.81-3.06c-2.73,0-4.35,2.4-4.35,5.61,0,2.94,1.44,5.37,4.29,5.37a4,4,0,0,0,3.87-3.15,4.59,4.59,0,0,0,.12-1.14Z"/><path d="M1096,543.61v4.17h3.78v2H1096v7.83c0,1.8.51,2.82,2,2.82a5.87,5.87,0,0,0,1.53-.18l.12,2a6.46,6.46,0,0,1-2.34.36,3.66,3.66,0,0,1-2.85-1.11c-.75-.78-1-2.07-1-3.78v-7.92h-2.25v-2h2.25V544.3Z"/><path d="M1102.73,552.31c0-1.71,0-3.18-.12-4.53h2.31l.09,2.85h.12a4.36,4.36,0,0,1,4-3.18,2.86,2.86,0,0,1,.75.09V550a4,4,0,0,0-.9-.09c-1.86,0-3.18,1.41-3.54,3.39a7.43,7.43,0,0,0-.12,1.23v7.74h-2.61Z"/><path d="M1124.69,558.34c0,1.5,0,2.82.12,4h-2.34l-.15-2.37h-.06a5.46,5.46,0,0,1-4.8,2.7c-2.28,0-5-1.26-5-6.36v-8.49h2.64v8c0,2.76.84,4.62,3.24,4.62a3.82,3.82,0,0,0,3.48-2.4,3.86,3.86,0,0,0,.24-1.35v-8.91h2.64Z"/><path d="M1129.07,552.52c0-1.86-.06-3.36-.12-4.74h2.37l.12,2.49h.06a5.71,5.71,0,0,1,5.16-2.82c3.51,0,6.15,3,6.15,7.38,0,5.22-3.18,7.8-6.6,7.8a5.09,5.09,0,0,1-4.47-2.28h-.06v7.89h-2.61Zm2.61,3.87a5.94,5.94,0,0,0,.12,1.08,4.07,4.07,0,0,0,4,3.09c2.79,0,4.41-2.28,4.41-5.61,0-2.91-1.53-5.4-4.32-5.4a4.21,4.21,0,0,0-4,3.27,4.28,4.28,0,0,0-.18,1.08Z"/></g></svg>
