<svg xmlns="http://www.w3.org/2000/svg" width="1920" height="1080" viewBox="0 0 1920 1080"><defs><style>.cls-1{fill:#e6e6e6;}.cls-2{opacity:0.54;}.cls-3{fill:#f68b00;}</style></defs><title>forside_portfolio</title><g id="Layer_1" data-name="Layer 1"><rect class="cls-1" width="1920" height="1080"/></g><g id="Layer_2" data-name="Layer 2"><g class="cls-2"><ellipse class="cls-3" cx="960" cy="540.5" rx="189.5" ry="199"/><path d="M960,342a180.15,180.15,0,0,1,73.55,15.59,188.3,188.3,0,0,1,60.08,42.53,198.65,198.65,0,0,1,40.51,63.1,208.38,208.38,0,0,1,0,154.56,198.65,198.65,0,0,1-40.51,63.1,188.3,188.3,0,0,1-60.08,42.53,181.29,181.29,0,0,1-147.1,0,188.3,188.3,0,0,1-60.08-42.53,198.65,198.65,0,0,1-40.51-63.1,208.38,208.38,0,0,1,0-154.56,198.65,198.65,0,0,1,40.51-63.1,188.3,188.3,0,0,1,60.08-42.53A180.15,180.15,0,0,1,960,342m0-1c-104.93,0-190,89.32-190,199.5S855.07,740,960,740s190-89.32,190-199.5S1064.93,341,960,341Z"/></g><path d="M781.85,539.94l-2.1,6.36h-2.7l6.87-20.22h3.15L794,546.3h-2.79L789,539.94Zm6.63-2-2-5.82c-.45-1.32-.75-2.52-1-3.69h-.06c-.3,1.2-.63,2.43-1,3.66l-2,5.85Z"/><path d="M796.76,536.31c0-1.71,0-3.18-.12-4.53H799l.09,2.85h.12a4.36,4.36,0,0,1,4-3.18,2.86,2.86,0,0,1,.75.09V534a4,4,0,0,0-.9-.09c-1.86,0-3.18,1.41-3.54,3.39a7.43,7.43,0,0,0-.12,1.23v7.74h-2.61Z"/><path d="M810.47,527.61v4.17h3.78v2h-3.78v7.83c0,1.8.51,2.82,2,2.82a5.87,5.87,0,0,0,1.53-.18l.12,2a6.46,6.46,0,0,1-2.34.36,3.66,3.66,0,0,1-2.85-1.11c-.75-.78-1-2.07-1-3.78v-7.92h-2.25v-2h2.25V528.3Z"/><path d="M817.22,525h2.64v9.06h.06a4.9,4.9,0,0,1,1.89-1.86,5.43,5.43,0,0,1,2.7-.75c2,0,5.07,1.2,5.07,6.21v8.64h-2.64V538c0-2.34-.87-4.32-3.36-4.32a3.79,3.79,0,0,0-3.54,2.64,3.2,3.2,0,0,0-.18,1.26v8.76h-2.64Z"/><path d="M846,542.34c0,1.5,0,2.82.12,4H843.8l-.15-2.37h-.06a5.46,5.46,0,0,1-4.8,2.7c-2.28,0-5-1.26-5-6.36v-8.49h2.64v8c0,2.76.84,4.62,3.24,4.62a3.82,3.82,0,0,0,3.48-2.4,3.86,3.86,0,0,0,.24-1.35v-8.91H846Z"/><path d="M850.4,536.31c0-1.71,0-3.18-.12-4.53h2.31l.09,2.85h.12a4.36,4.36,0,0,1,4-3.18,2.86,2.86,0,0,1,.75.09V534a4,4,0,0,0-.9-.09c-1.86,0-3.18,1.41-3.54,3.39a7.43,7.43,0,0,0-.12,1.23v7.74H850.4Z"/><path d="M883.7,537.42c-.15-2.82-.33-6.21-.3-8.73h-.09c-.69,2.37-1.53,4.89-2.55,7.68l-3.57,9.81h-2l-3.27-9.63c-1-2.85-1.77-5.46-2.34-7.86h-.06c-.06,2.52-.21,5.91-.39,8.94l-.54,8.67h-2.49l1.41-20.22h3.33l3.45,9.78c.84,2.49,1.53,4.71,2,6.81h.09c.51-2,1.23-4.26,2.13-6.81l3.6-9.78h3.33l1.26,20.22h-2.55Z"/><path d="M894,527.7a1.64,1.64,0,0,1-3.27,0,1.61,1.61,0,0,1,1.65-1.65A1.57,1.57,0,0,1,894,527.7Zm-2.94,18.6V531.78h2.64V546.3Z"/><path d="M901.25,527.61v4.17H905v2h-3.78v7.83c0,1.8.51,2.82,2,2.82a5.87,5.87,0,0,0,1.53-.18l.12,2a6.46,6.46,0,0,1-2.34.36,3.66,3.66,0,0,1-2.85-1.11c-.75-.78-1-2.07-1-3.78v-7.92h-2.25v-2h2.25V528.3Z"/><path d="M908,536.31c0-1.71,0-3.18-.12-4.53h2.31l.09,2.85h.12a4.36,4.36,0,0,1,4-3.18,2.86,2.86,0,0,1,.75.09V534a4,4,0,0,0-.9-.09c-1.86,0-3.18,1.41-3.54,3.39a7.43,7.43,0,0,0-.12,1.23v7.74H908Z"/><path d="M925.7,546.3l-.21-1.83h-.09a5.41,5.41,0,0,1-4.44,2.16,4.14,4.14,0,0,1-4.44-4.17c0-3.51,3.12-5.43,8.73-5.4v-.3c0-1.2-.33-3.36-3.3-3.36a7.23,7.23,0,0,0-3.78,1.08l-.6-1.74a9,9,0,0,1,4.77-1.29c4.44,0,5.52,3,5.52,5.94v5.43a20.44,20.44,0,0,0,.24,3.48Zm-.39-7.41c-2.88-.06-6.15.45-6.15,3.27a2.34,2.34,0,0,0,2.49,2.52,3.61,3.61,0,0,0,3.51-2.43,2.76,2.76,0,0,0,.15-.84Z"/><path d="M942.71,526.08h2.61v13.53c0,5.37-2.64,7-6.12,7a8.45,8.45,0,0,1-2.79-.48l.39-2.13a6.23,6.23,0,0,0,2.19.39c2.34,0,3.72-1,3.72-5Z"/><path d="M962.72,538.92c0,5.37-3.72,7.71-7.23,7.71-3.93,0-7-2.88-7-7.47,0-4.86,3.18-7.71,7.2-7.71S962.72,534.48,962.72,538.92Zm-11.52.15c0,3.18,1.83,5.58,4.41,5.58S960,542.28,960,539c0-2.46-1.23-5.58-4.35-5.58S951.2,536.31,951.2,539.07Z"/><path d="M966.05,535.71c0-1.5,0-2.73-.12-3.93h2.34l.15,2.4h.06a5.34,5.34,0,0,1,4.8-2.73c2,0,5.13,1.2,5.13,6.18v8.67h-2.64v-8.37c0-2.34-.87-4.29-3.36-4.29a3.75,3.75,0,0,0-3.54,2.7,3.8,3.8,0,0,0-.18,1.23v8.73h-2.64Z"/><path d="M983.27,531.78l3.18,8.58c.33,1,.69,2.1.93,3h.06c.27-.87.57-2,.93-3l2.88-8.52H994l-4,10.35c-1.89,5-3.18,7.53-5,9.09a7.15,7.15,0,0,1-3.24,1.71l-.66-2.22a7,7,0,0,0,2.31-1.29,8,8,0,0,0,2.22-2.94,1.9,1.9,0,0,0,.21-.63,2.3,2.3,0,0,0-.18-.69l-5.37-13.38Z"/><path d="M1008.68,525v17.55c0,1.29,0,2.76.12,3.75h-2.37l-.12-2.52h-.06a5.37,5.37,0,0,1-5,2.85c-3.51,0-6.21-3-6.21-7.38,0-4.83,3-7.8,6.51-7.8a4.85,4.85,0,0,1,4.38,2.22h.06V525ZM1006,537.69a4.66,4.66,0,0,0-.12-1.11,3.88,3.88,0,0,0-3.81-3.06c-2.73,0-4.35,2.4-4.35,5.61,0,2.94,1.44,5.37,4.29,5.37a4,4,0,0,0,3.87-3.15,4.59,4.59,0,0,0,.12-1.14Z"/><path d="M1016,527.7a1.64,1.64,0,0,1-3.27,0,1.61,1.61,0,0,1,1.65-1.65A1.57,1.57,0,0,1,1016,527.7Zm-2.94,18.6V531.78h2.64V546.3Z"/><path d="M1029.8,539.94l-2.1,6.36H1025l6.87-20.22H1035l6.9,20.22h-2.79l-2.16-6.36Zm6.63-2-2-5.82c-.45-1.32-.75-2.52-1-3.69h-.06c-.3,1.2-.63,2.43-1,3.66l-2,5.85Z"/><path d="M1044.59,546.3c.06-1,.12-2.46.12-3.75V525h2.61v9.12h.06a5.41,5.41,0,0,1,4.95-2.67c3.6,0,6.15,3,6.12,7.41,0,5.19-3.27,7.77-6.51,7.77a5.17,5.17,0,0,1-4.86-2.73H1047l-.12,2.4Zm2.73-5.82a4.94,4.94,0,0,0,.12,1,4.07,4.07,0,0,0,4,3.09c2.76,0,4.41-2.25,4.41-5.58,0-2.91-1.5-5.4-4.32-5.4a4.21,4.21,0,0,0-4,3.24,5.2,5.2,0,0,0-.15,1.08Z"/><path d="M1064.72,527.7a1.64,1.64,0,0,1-3.27,0,1.61,1.61,0,0,1,1.65-1.65A1.57,1.57,0,0,1,1064.72,527.7Zm-2.94,18.6V531.78h2.64V546.3Z"/><path d="M1068.8,525h2.64v21.3h-2.64Z"/><path d="M1088.42,525v17.55c0,1.29,0,2.76.12,3.75h-2.37l-.12-2.52H1086a5.37,5.37,0,0,1-5,2.85c-3.51,0-6.21-3-6.21-7.38,0-4.83,3-7.8,6.51-7.8a4.85,4.85,0,0,1,4.38,2.22h.06V525Zm-2.64,12.69a4.66,4.66,0,0,0-.12-1.11,3.88,3.88,0,0,0-3.81-3.06c-2.73,0-4.35,2.4-4.35,5.61,0,2.94,1.44,5.37,4.29,5.37a4,4,0,0,0,3.87-3.15,4.59,4.59,0,0,0,.12-1.14Z"/><path d="M1096,527.61v4.17h3.78v2H1096v7.83c0,1.8.51,2.82,2,2.82a5.87,5.87,0,0,0,1.53-.18l.12,2a6.46,6.46,0,0,1-2.34.36,3.66,3.66,0,0,1-2.85-1.11c-.75-.78-1-2.07-1-3.78v-7.92h-2.25v-2h2.25V528.3Z"/><path d="M1102.73,536.31c0-1.71,0-3.18-.12-4.53h2.31l.09,2.85h.12a4.36,4.36,0,0,1,4-3.18,2.86,2.86,0,0,1,.75.09V534a4,4,0,0,0-.9-.09c-1.86,0-3.18,1.41-3.54,3.39a7.43,7.43,0,0,0-.12,1.23v7.74h-2.61Z"/><path d="M1124.69,542.34c0,1.5,0,2.82.12,4h-2.34l-.15-2.37h-.06a5.46,5.46,0,0,1-4.8,2.7c-2.28,0-5-1.26-5-6.36v-8.49h2.64v8c0,2.76.84,4.62,3.24,4.62a3.82,3.82,0,0,0,3.48-2.4,3.86,3.86,0,0,0,.24-1.35v-8.91h2.64Z"/><path d="M1129.07,536.52c0-1.86-.06-3.36-.12-4.74h2.37l.12,2.49h.06a5.71,5.71,0,0,1,5.16-2.82c3.51,0,6.15,3,6.15,7.38,0,5.22-3.18,7.8-6.6,7.8a5.09,5.09,0,0,1-4.47-2.28h-.06v7.89h-2.61Zm2.61,3.87a5.94,5.94,0,0,0,.12,1.08,4.07,4.07,0,0,0,4,3.09c2.79,0,4.41-2.28,4.41-5.61,0-2.91-1.53-5.4-4.32-5.4a4.21,4.21,0,0,0-4,3.27,4.28,4.28,0,0,0-.18,1.08Z"/></g></svg>
