<svg id="Layer_1" data-name="Layer 1" xmlns="http://www.w3.org/2000/svg" width="1366" height="768" viewBox="0 0 1366 768"><defs><style>.cls-1{fill:#c1272d;}.cls-2{fill:blue;}.cls-3{fill:red;}.cls-4{fill:#93278f;}</style></defs><title>Artboard 1</title><circle class="cls-1" cx="695.5" cy="367.5" r="65"/><path d="M695.5,303A64.5,64.5,0,1,1,631,367.5,64.57,64.57,0,0,1,695.5,303m0-1A65.5,65.5,0,1,0,761,367.5,65.51,65.51,0,0,0,695.5,302Z"/><circle class="cls-2" cx="695" cy="367" r="46.5"/><path d="M695,321a46,46,0,1,1-46,46,46.06,46.06,0,0,1,46-46m0-1a47,47,0,1,0,47,47,47,47,0,0,0-47-47Z"/><circle class="cls-3" cx="695.5" cy="367.5" r="31"/><path d="M695.5,337A30.5,30.5,0,1,1,665,367.5,30.53,30.53,0,0,1,695.5,337m0-1A31.5,31.5,0,1,0,727,367.5,31.5,31.5,0,0,0,695.5,336Z"/><circle class="cls-4" cx="695" cy="368" r="16.5"/><path d="M695,352a16,16,0,1,1-16,16,16,16,0,0,1,16-16m0-1a17,17,0,1,0,17,17,17,17,0,0,0-17-17Z"/></svg>
