<svg id="Layer_1" data-name="Layer 1" xmlns="http://www.w3.org/2000/svg" width="1920" height="1080" viewBox="0 0 1920 1080"><defs><style>.cls-1{fill:#477687;}.cls-2{fill:#c69c6d;}.cls-3{fill:#d4c500;}.cls-4{fill:#4d4d4d;}.cls-5,.cls-6,.cls-7{fill:#fff;}.cls-5{opacity:0.49;}.cls-10,.cls-6{stroke:#000;stroke-miterlimit:10;}.cls-8{fill:#1f0600;opacity:0.16;}.cls-9{fill:#d7ec00;}.cls-11{fill:#662d91;}</style></defs><title>start_screen</title><rect class="cls-1" x="0.77" y="1.86" width="1919" height="1078"/><path d="M1919.27,2.36v1077H1.27V2.36h1918m1-1H.27v1079h1920V1.36Z"/><path class="cls-2" d="M1919.27,863.54v215.82H.27v-213c189.2-66.82,549.78-112,963.5-112C1371.73,754.36,1728,798.25,1919.27,863.54Z"/><path d="M754.61,149c.8.28,1.61.61,2.44,1s1.7.73,2.59,1.07a22.1,22.1,0,0,0,2.79.86,13,13,0,0,0,3.11.35,17.58,17.58,0,0,0,3.91-.45,19.21,19.21,0,0,0,3.85-1.36,20.93,20.93,0,0,0,3.6-2.18,18.82,18.82,0,0,0,3.16-3A41.35,41.35,0,0,0,782.7,142c.7-1,1.27-1.84,1.71-2.6a12.32,12.32,0,0,0,.93-2,4.72,4.72,0,0,0,.28-1.42,2.17,2.17,0,0,0-.6-1.53,4.4,4.4,0,0,0-1.6-1.07,9.63,9.63,0,0,0-2.27-.62,17.23,17.23,0,0,0-2.63-.19c-.54,0-1.18,0-1.9.05l-2.22.11-2.18.08c-.7,0-1.31,0-1.82,0a12,12,0,0,1-2.41-.26,10.41,10.41,0,0,1-2.45-.87,8.24,8.24,0,0,1-3.9-4.14,9.22,9.22,0,0,1-.39-1.16,6.07,6.07,0,0,1-.17-1.45,10.29,10.29,0,0,1,.12-1.6c.08-.5.18-1,.3-1.45a13.2,13.2,0,0,1,1.64-3.57,23.74,23.74,0,0,1,2.74-3.54,42.69,42.69,0,0,1,3.48-3.34c1.25-1.07,2.54-2.09,3.87-3s2.62-1.8,3.9-2.56,2.46-1.42,3.57-2a20.52,20.52,0,0,1,4.72-1.64,23,23,0,0,1,4.77-.51,9.31,9.31,0,0,1,2.67.37,7.21,7.21,0,0,1,2.23,1.07,5.1,5.1,0,0,1,1.53,1.74,4.84,4.84,0,0,1,.56,2.38,4.14,4.14,0,0,1-.17,1.3,2.69,2.69,0,0,1-.46.86,1.65,1.65,0,0,1-.61.47,1.67,1.67,0,0,1-.69.14,6.8,6.8,0,0,1-1.74-.21c-.53-.14-1-.3-1.53-.47s-1-.34-1.48-.49a5.18,5.18,0,0,0-1.61-.23,14.62,14.62,0,0,0-5.29,1,30.63,30.63,0,0,0-5.24,2.64,39.26,39.26,0,0,0-4.82,3.57q-2.26,2-4.06,3.83a7.21,7.21,0,0,0-1.39,2,4.65,4.65,0,0,0-.44,1.86,2.31,2.31,0,0,0,1.13,2,4.9,4.9,0,0,0,2.74.74l2.15,0,2.44-.09,2.42-.11c.79,0,1.49-.05,2.1-.05a14.19,14.19,0,0,1,4.18.61,11.13,11.13,0,0,1,3.55,1.81,9,9,0,0,1,2.48,3,8.59,8.59,0,0,1,.93,4.06,10.13,10.13,0,0,1-.42,2.84,16.71,16.71,0,0,1-1.16,2.9,27.49,27.49,0,0,1-1.69,2.89c-.63.95-1.3,1.88-2,2.79a38.54,38.54,0,0,1-4.24,4.64,31.34,31.34,0,0,1-5,3.8,26.12,26.12,0,0,1-5.58,2.57,19.49,19.49,0,0,1-6,.94,16.29,16.29,0,0,1-2.74-.24,19.11,19.11,0,0,1-2.77-.72,14.22,14.22,0,0,1-2.59-1.2,10.7,10.7,0,0,1-2.13-1.63,7.6,7.6,0,0,1-1.45-2,5.3,5.3,0,0,1-.55-2.41,3.74,3.74,0,0,1,.19-1.21A.89.89,0,0,1,754.61,149Z"/><path d="M803.37,146.13A29.47,29.47,0,0,1,804,140c.45-2.12.91-4.16,1.41-6.1a8.91,8.91,0,0,1-1.87-.28,8,8,0,0,1-1.72-.67,4.1,4.1,0,0,1-1.27-1,2.25,2.25,0,0,1-.49-1.42,3.26,3.26,0,0,1,.14-.81,4.78,4.78,0,0,1,.41-1,2.77,2.77,0,0,1,.68-.81,1.5,1.5,0,0,1,.95-.33H807a.91.91,0,0,0,.92-.58,8,8,0,0,0,.38-1.14q.47-2,.87-3.54c.26-1,.49-1.84.68-2.53s.33-1.25.44-1.68a4.47,4.47,0,0,0,.16-1,8.26,8.26,0,0,0,0-.88c0-.28,0-.67,0-1.16v-.35c0-.19,0-.44,0-.74a8.16,8.16,0,0,1,.33-1.3,3.37,3.37,0,0,1,.78-1.27,2.13,2.13,0,0,1,1.65-.59,3.18,3.18,0,0,1,1.62.38,3.33,3.33,0,0,1,1.09,1,4.7,4.7,0,0,1,.63,1.44,6.43,6.43,0,0,1,.21,1.62,6.89,6.89,0,0,1-.17,1.58L814,126.66c1.26-.21,2.39-.41,3.37-.6l3-.56q1.62-.31,2.79-.6l2-.48,1.43-.31a5,5,0,0,1,1-.13,7.52,7.52,0,0,1,1.15.09,3.81,3.81,0,0,1,1,.3,1.9,1.9,0,0,1,.72.6,1.76,1.76,0,0,1,.28,1,3.12,3.12,0,0,1-.34,1.49,3.85,3.85,0,0,1-.86,1.13,4.77,4.77,0,0,1-1.19.77,6.36,6.36,0,0,1-1.34.44c-.37.07-.86.18-1.46.32l-2,.45-2.23.53-2.25.56-2.76.71c-.76.18-1.41.33-1.95.42L813,133a5.75,5.75,0,0,1-.82.07c-.45,1.34-.84,2.65-1.16,3.94s-.61,2.49-.83,3.6-.39,2.11-.49,3a17.4,17.4,0,0,0-.16,2.06,8.89,8.89,0,0,0,.18,1.81,4,4,0,0,0,.59,1.49,3,3,0,0,0,1.15,1,3.89,3.89,0,0,0,1.81.37,7.28,7.28,0,0,0,3.65-1,17.41,17.41,0,0,0,3.43-2.58,31.89,31.89,0,0,0,3.09-3.43c1-1.24,1.87-2.43,2.69-3.55a1.27,1.27,0,0,1,1.09-.63,2.12,2.12,0,0,1,.51.07,1.83,1.83,0,0,1,.58.24,1.62,1.62,0,0,1,.48.46,1.15,1.15,0,0,1,.19.67,2.12,2.12,0,0,1,0,.42,20.37,20.37,0,0,1-1.74,4.38q-1.18,2.19-2.41,4.41a7.48,7.48,0,0,1-1.11,1.51,18.29,18.29,0,0,1-1.49,1.42c-.54.46-1.11.9-1.69,1.31s-1.14.77-1.65,1.1a8.43,8.43,0,0,1-2.92,1.16,15.76,15.76,0,0,1-3.06.32,9.53,9.53,0,0,1-4.06-.83,8.71,8.71,0,0,1-3-2.25,10,10,0,0,1-1.85-3.32A12.83,12.83,0,0,1,803.37,146.13Z"/><path d="M837.05,153.45q.47-2.46,1.06-5.42c.39-2,.81-4,1.23-6s.83-4,1.23-5.94.74-3.72,1-5.34a4.8,4.8,0,0,1,0-.62v-.58a17.85,17.85,0,0,1,.14-2.18,17.31,17.31,0,0,1,.39-2,4.39,4.39,0,0,1,.86-1.81,2.09,2.09,0,0,1,1.53-.47,2.91,2.91,0,0,1,1.63.4,2.86,2.86,0,0,1,1,1.07,4.34,4.34,0,0,1,.46,1.53,14.81,14.81,0,0,1,.1,1.78c0,.33,0,.69,0,1.09s0,.71,0,1q1-1,2.1-2.1A18.83,18.83,0,0,1,852,125.9a13.44,13.44,0,0,1,2.64-1.42,7.53,7.53,0,0,1,2.9-.57,6.64,6.64,0,0,1,1.18.11,11,11,0,0,1,1.17.28,11.82,11.82,0,0,1,1.46.48,5.9,5.9,0,0,1,1.46.82,7.66,7.66,0,0,1,1.95,2.2,5.13,5.13,0,0,1,.79,2.69,3.55,3.55,0,0,1-.21,1.14,4.17,4.17,0,0,1-.58,1.13,3.27,3.27,0,0,1-.86.84,1.92,1.92,0,0,1-1.09.33,4.61,4.61,0,0,1-1.46-.3,4,4,0,0,1-1.42-.79,2.81,2.81,0,0,1-.51-.59c-.18-.26-.34-.52-.49-.78s-.3-.49-.43-.72a2.17,2.17,0,0,0-.29-.44l-.39-.05-.39,0a6.85,6.85,0,0,0-3.41.92,15.7,15.7,0,0,0-3,2.23,26.37,26.37,0,0,0-2.59,2.81c-.78,1-1.47,1.89-2,2.69q-.71,2.85-1.57,6.07t-1.7,6.73v.88c0,.7,0,1.41-.07,2.14a6.16,6.16,0,0,1-.42,1.93,3.07,3.07,0,0,1-1.11.9,3.57,3.57,0,0,1-1.67.37,2.61,2.61,0,0,1-2.22-1,3.62,3.62,0,0,1-.73-2.26A4.45,4.45,0,0,1,837.05,153.45Z"/><path d="M884.09,155.55a14.18,14.18,0,0,1,.25-2.44,21.79,21.79,0,0,0,.24-3.53c-.77.56-1.63,1.23-2.56,2s-1.91,1.51-2.92,2.22a22,22,0,0,1-3,1.77,6.42,6.42,0,0,1-2.79.72,6.36,6.36,0,0,1-2-.31,5.23,5.23,0,0,1-1.61-.85,10.29,10.29,0,0,1-2.69-2.95,6.94,6.94,0,0,1-.83-3.45,10.59,10.59,0,0,1,.16-1.82c.1-.64.26-1.36.47-2.18a30.64,30.64,0,0,1,4.59-10.29,31.39,31.39,0,0,1,8.07-8.06,9.7,9.7,0,0,1,3.73-1.67,18.62,18.62,0,0,1,3.69-.37,17.42,17.42,0,0,1,1.81.1l1.81.21c.54-.11,1-.2,1.32-.24a7.3,7.3,0,0,1,1.07-.07,4.74,4.74,0,0,1,1.76.28,3,3,0,0,1,1.12.75,3,3,0,0,1,.62,1.09,4.24,4.24,0,0,1,.19,1.29,5.29,5.29,0,0,1-.28,1.74c-.19.55-.37,1.1-.56,1.67l-4.64,18.52c-.1,1-.18,1.94-.25,2.78a12.21,12.21,0,0,1-.42,2.36l-.26.79a3.19,3.19,0,0,1-.51.91,3.43,3.43,0,0,1-.88.76,2.65,2.65,0,0,1-1.37.31,8.1,8.1,0,0,1-1.74-.14,2.65,2.65,0,0,1-1-.4,1.24,1.24,0,0,1-.45-.63A3.23,3.23,0,0,1,884.09,155.55Zm-11.67-10.61c-.09.33-.19.79-.3,1.4a10.29,10.29,0,0,0-.16,1.83,5.11,5.11,0,0,0,.28,1.71,1.17,1.17,0,0,0,1.23.75,5.91,5.91,0,0,0,2.76-.65,13.07,13.07,0,0,0,2.41-1.56c1-.82,2-1.74,3.08-2.76a39.08,39.08,0,0,0,2.95-3.22,28.1,28.1,0,0,0,2.46-3.46,14.17,14.17,0,0,0,1.57-3.53,21.37,21.37,0,0,0,.47-2.36,16.69,16.69,0,0,0,.19-2.39,2.11,2.11,0,0,0-.21-.9.82.82,0,0,0-.81-.44,9.75,9.75,0,0,0-3.46.67,16,16,0,0,0-3.36,1.79,20.45,20.45,0,0,0-3.07,2.66,26.94,26.94,0,0,0-2.66,3.27,25.18,25.18,0,0,0-2,3.58A20.35,20.35,0,0,0,872.42,144.94Z"/><path d="M926.88,128.2a7.09,7.09,0,0,0-2.64.58,17.91,17.91,0,0,0-2.92,1.57,37.49,37.49,0,0,0-3.07,2.23c-1,.83-2.07,1.69-3.08,2.58-.52.45-1,.85-1.48,1.22a5.86,5.86,0,0,1-1.4.82,15.19,15.19,0,0,0-1,2.13c-.36.88-.72,1.84-1.07,2.88s-.69,2.11-1,3.2-.58,2.11-.79,3c-.11.5-.21,1-.28,1.44s-.15,1-.24,1.5-.21,1.09-.34,1.7-.28,1.29-.47,2a2.52,2.52,0,0,1-.56,1.08,3.19,3.19,0,0,1-.81.61,2.46,2.46,0,0,1-.81.26,4.25,4.25,0,0,1-.6.06,3.48,3.48,0,0,1-2.18-.64,2.93,2.93,0,0,1-.84-2.46c0-.33,0-.67,0-1a7.81,7.81,0,0,1,.21-1.22c.52-2.22,1-4.23,1.5-6s1-3.43,1.46-5,1-2.95,1.49-4.3,1-2.71,1.55-4.08,1.08-2.79,1.65-4.25,1.19-3.09,1.85-4.87a1.91,1.91,0,0,1,1.1-1,4.78,4.78,0,0,1,1.92-.4,3.78,3.78,0,0,1,2.2.6,2,2,0,0,1,.86,1.72,2.72,2.72,0,0,1-.07.39,4.22,4.22,0,0,1-.21.59l-1.55,3.66c1-.77,2-1.55,3.08-2.32a31.79,31.79,0,0,1,3.28-2.09A20.69,20.69,0,0,1,925,123a10.23,10.23,0,0,1,3.35-.58,7.34,7.34,0,0,1,5.28,1.81c1.26,1.21,1.89,3.07,1.89,5.61a19.22,19.22,0,0,1-.75,5q-.76,2.77-1.9,6t-2.46,6.68c-.88,2.33-1.69,4.71-2.44,7.12a12.92,12.92,0,0,1-.65,1.65,3.37,3.37,0,0,1-.8,1.07,2.59,2.59,0,0,1-1.07.58A5.38,5.38,0,0,1,924,158a2.72,2.72,0,0,1-1.9-.51,2.19,2.19,0,0,1-.53-1.63,12,12,0,0,1,.3-2.41c.2-1,.48-2,.84-3.13s.79-2.35,1.27-3.64,1-2.6,1.56-3.94c.45-1.07.89-2.15,1.32-3.23s.82-2.12,1.16-3.13.62-2,.83-2.88a11.44,11.44,0,0,0,.32-2.53,3.75,3.75,0,0,0-.48-1.92A1.87,1.87,0,0,0,926.88,128.2Z"/><path d="M941.29,145a27.85,27.85,0,0,1,1.21-3.8,26.38,26.38,0,0,1,1.88-3.76,25.35,25.35,0,0,1,2.68-3.64,25.73,25.73,0,0,1,3.62-3.39,33,33,0,0,1,3-2.13,24.76,24.76,0,0,1,3.18-1.74,21.93,21.93,0,0,1,3.25-1.18,12.48,12.48,0,0,1,3.22-.44,9.62,9.62,0,0,1,2.05.2,9.47,9.47,0,0,1,1.71.54q.35-1.23,1.88-6.61t3.74-15a4.42,4.42,0,0,1,1.09-1.59,2.46,2.46,0,0,1,1.69-.63,7.67,7.67,0,0,1,1.37.12,3.06,3.06,0,0,1,1.2.5,2.59,2.59,0,0,1,.84,1,3.7,3.7,0,0,1,.32,1.65l-7.07,28.23a29.27,29.27,0,0,0-.6,3.22c-.18,1.35-.36,2.77-.52,4.27s-.3,3-.39,4.45-.14,2.72-.14,3.78A16.63,16.63,0,0,1,970,153a10.12,10.12,0,0,1-.44,1.42,2.48,2.48,0,0,1-.61,1,2.23,2.23,0,0,1-1,.53,5.9,5.9,0,0,1-1.46.16,4.7,4.7,0,0,1-1.58-.21,1.85,1.85,0,0,1-.84-.58,1.72,1.72,0,0,1-.34-.85c0-.31-.06-.65-.07-1s0-.74-.07-1.12a3.05,3.05,0,0,0-.3-1.11c-.28.19-.66.43-1.16.74l-1.49.93-1.43.88-1,.58c-.54.3-1.15.63-1.83,1s-1.41.65-2.19,1a19.11,19.11,0,0,1-2.47.72,12.43,12.43,0,0,1-2.58.28,9.28,9.28,0,0,1-3.08-.53,7.67,7.67,0,0,1-2.67-1.62,7.8,7.8,0,0,1-1.88-2.76,10,10,0,0,1-.7-3.92,14.17,14.17,0,0,1,.09-1.6A12.78,12.78,0,0,1,941.29,145Zm6.08-.28a7.76,7.76,0,0,0-.28,2,9.68,9.68,0,0,0,.18,1.91,3.87,3.87,0,0,0,.65,1.57,3.48,3.48,0,0,0,1.26,1.07,4.55,4.55,0,0,0,2.06.4,5.32,5.32,0,0,0,1.51-.24,12.56,12.56,0,0,0,1.6-.62,15.75,15.75,0,0,0,1.48-.77c.45-.27.85-.51,1.17-.72.9-.59,1.72-1.16,2.48-1.73a14.56,14.56,0,0,0,2.06-1.82,11.81,11.81,0,0,0,1.6-2.2,11.68,11.68,0,0,0,1.11-2.8c.23-.93.44-1.79.61-2.56s.34-1.53.48-2.27.27-1.49.38-2.27.24-1.63.36-2.56a2.23,2.23,0,0,0-.48-.41,1.67,1.67,0,0,0-.9-.19,11.79,11.79,0,0,0-3.09.47,20.11,20.11,0,0,0-3.46,1.36,22,22,0,0,0-3.48,2.14,24.29,24.29,0,0,0-3.17,2.83,19.58,19.58,0,0,0-2.55,3.43A14.45,14.45,0,0,0,947.37,144.73Z"/><path d="M981.83,150.84a2,2,0,0,1,.5.07l.51.16c.19.06.4.11.64.16a4.54,4.54,0,0,0,.91.07,22.16,22.16,0,0,0,3.68-.35,30.34,30.34,0,0,0,3.81-.91,16.6,16.6,0,0,0,3.08-1.29c.85-.48,1.34-1,1.46-1.49a3.09,3.09,0,0,0,.1-.74,1.55,1.55,0,0,0-.58-1.14,7.21,7.21,0,0,0-1.46-1,16.76,16.76,0,0,0-1.9-.91c-.68-.29-1.31-.54-1.9-.78l-1.19-.49a11.74,11.74,0,0,1-1.79-.86,10,10,0,0,1-1.64-1.18,7.46,7.46,0,0,1-1.33-1.56,6.7,6.7,0,0,1-.87-2.06,9.13,9.13,0,0,1-.22-1,5.9,5.9,0,0,1-.09-1.06,4.59,4.59,0,0,1,.61-2.09,11.09,11.09,0,0,1,1.66-2.34,19.17,19.17,0,0,1,2.35-2.21,14.6,14.6,0,0,1,2.76-1.76c.7-.49,1.38-.94,2-1.34a15,15,0,0,1,2-1,12.14,12.14,0,0,1,2-.66,9.13,9.13,0,0,1,2.19-.25c.71,0,1.47,0,2.29.1a8.24,8.24,0,0,1,2.25.5,4.32,4.32,0,0,1,1.7,1.14,2.88,2.88,0,0,1,.69,2,6.6,6.6,0,0,1-.11,1,6.19,6.19,0,0,1-.35,1.27,4.21,4.21,0,0,1-.6,1.09,1,1,0,0,1-.84.45,2.61,2.61,0,0,1-1.34-.31,6.81,6.81,0,0,1-1-.69,9.28,9.28,0,0,0-.87-.68,1.88,1.88,0,0,0-1.13-.32,7.07,7.07,0,0,0-1.88.3,15.15,15.15,0,0,0-2.2.81,19.07,19.07,0,0,0-4.13,2.55,8.64,8.64,0,0,0-1.39,1.38,2.14,2.14,0,0,0-.52,1.25,1.33,1.33,0,0,0,.38,1,3.49,3.49,0,0,0,1,.66,16.39,16.39,0,0,0,1.77.85l2,.84c.68.28,1.35.56,2,.85s1.2.54,1.67.77c.63.33,1.2.65,1.7,1a6.21,6.21,0,0,1,1.29,1,4.16,4.16,0,0,1,.81,1.27,4.6,4.6,0,0,1,.28,1.65,6.84,6.84,0,0,1-.07.91c0,.31-.12.66-.21,1.06a8.94,8.94,0,0,1-.37,1.23c-.18.47-.37.93-.56,1.39a11.71,11.71,0,0,1-.62,1.23,3,3,0,0,1-.53.72,19.42,19.42,0,0,1-3.23,2.37,28.79,28.79,0,0,1-3.89,1.94,27.14,27.14,0,0,1-4,1.31,15.71,15.71,0,0,1-3.71.5,5.84,5.84,0,0,1-1.86-.34,7.9,7.9,0,0,1-1.88-.88,5.66,5.66,0,0,1-1.44-1.24,2.21,2.21,0,0,1-.58-1.41,1.87,1.87,0,0,1,.21-.79,3.85,3.85,0,0,1,.52-.81,3.68,3.68,0,0,1,.69-.63A1.19,1.19,0,0,1,981.83,150.84Z"/><path d="M1035,159.07a3.81,3.81,0,0,1-3-.95,3.87,3.87,0,0,1-.81-2.6,10.94,10.94,0,0,1,.18-1.9c.11-.68.27-1.38.45-2.11.33-1.24.7-2.48,1.11-3.71l1.23-3.72c.41-1.26.81-2.51,1.2-3.77s.73-2.51,1-3.77a2,2,0,0,0,0-.46,1.13,1.13,0,0,0-.25-.78,1,1,0,0,0-.74-.28,5.11,5.11,0,0,0-1.67.32,7.71,7.71,0,0,0-1.49.7,42.24,42.24,0,0,0-4.13,3.13,33.15,33.15,0,0,0-3.25,3.24,37.5,37.5,0,0,0-2.8,3.6q-1.32,1.92-2.76,4.2a32.38,32.38,0,0,0-1.83,3.89,23.41,23.41,0,0,1-1.1,2.58,3.7,3.7,0,0,1-1.15,1.42,3.26,3.26,0,0,1-1.89.44,2.29,2.29,0,0,1-2-.81,3.5,3.5,0,0,1-.58-2.1,9.11,9.11,0,0,1,.32-2.29l11.6-46.48a4.2,4.2,0,0,1,.35-.91,3.39,3.39,0,0,1,.67-.91,3.48,3.48,0,0,1,1-.71,2.94,2.94,0,0,1,1.32-.28c.37,0,.77,0,1.19,0a6.1,6.1,0,0,1,1.14.21,2,2,0,0,1,.85.51,1.3,1.3,0,0,1,.33.92,4.13,4.13,0,0,1-.07.58,8.2,8.2,0,0,1-.21,1q-1.89,7.64-4.06,15.89t-4.38,16.7a49.51,49.51,0,0,1,4.47-4.83,32.58,32.58,0,0,1,4.76-3.78,23,23,0,0,1,5.06-2.48,16.64,16.64,0,0,1,5.44-.9,3.45,3.45,0,0,1,2.77,1.14,4.29,4.29,0,0,1,1,2.9,6.09,6.09,0,0,1-.21,1.59c-.28,1.08-.6,2.14-1,3.18s-.72,2.09-1.09,3.15-.75,2.12-1.13,3.21-.7,2.21-1,3.36a29.33,29.33,0,0,0-.77,4.2c-.15,1.32-.24,2.39-.29,3.18a10.52,10.52,0,0,1-.31,2,5.89,5.89,0,0,1-.72,1.67,3.79,3.79,0,0,1-1.2,1.16A3.23,3.23,0,0,1,1035,159.07Z"/><path d="M1067.43,155.55a14.18,14.18,0,0,1,.25-2.44,21.79,21.79,0,0,0,.24-3.53c-.77.56-1.63,1.23-2.56,2s-1.91,1.51-2.92,2.22a22,22,0,0,1-3,1.77,6.46,6.46,0,0,1-2.79.72,6.36,6.36,0,0,1-2-.31,5.23,5.23,0,0,1-1.61-.85,10.29,10.29,0,0,1-2.69-2.95,6.94,6.94,0,0,1-.83-3.45,10.59,10.59,0,0,1,.16-1.82c.1-.64.26-1.36.47-2.18a30.64,30.64,0,0,1,4.59-10.29,31.39,31.39,0,0,1,8.07-8.06,9.7,9.7,0,0,1,3.73-1.67,18.62,18.62,0,0,1,3.69-.37,17.42,17.42,0,0,1,1.81.1l1.81.21c.54-.11,1-.2,1.32-.24a7.3,7.3,0,0,1,1.07-.07,4.74,4.74,0,0,1,1.76.28,3,3,0,0,1,1.12.75,3,3,0,0,1,.62,1.09,4.24,4.24,0,0,1,.19,1.29,5.29,5.29,0,0,1-.28,1.74c-.19.55-.38,1.1-.56,1.67l-4.64,18.52c-.1,1-.18,1.94-.25,2.78a12.21,12.21,0,0,1-.42,2.36l-.26.79a3.19,3.19,0,0,1-.51.91,3.43,3.43,0,0,1-.88.76,2.67,2.67,0,0,1-1.37.31,8.1,8.1,0,0,1-1.74-.14,2.65,2.65,0,0,1-1-.4,1.24,1.24,0,0,1-.45-.63A3.23,3.23,0,0,1,1067.43,155.55Zm-11.67-10.61c-.09.33-.19.79-.3,1.4a10.29,10.29,0,0,0-.16,1.83,5.11,5.11,0,0,0,.28,1.71,1.17,1.17,0,0,0,1.23.75,5.91,5.91,0,0,0,2.76-.65,13.07,13.07,0,0,0,2.41-1.56c1-.82,2-1.74,3.08-2.76a40.93,40.93,0,0,0,3-3.22,28.1,28.1,0,0,0,2.46-3.46,14.17,14.17,0,0,0,1.57-3.53,21.37,21.37,0,0,0,.47-2.36,16.69,16.69,0,0,0,.19-2.39,2.11,2.11,0,0,0-.21-.9.82.82,0,0,0-.81-.44,9.75,9.75,0,0,0-3.46.67,16,16,0,0,0-3.36,1.79,20.45,20.45,0,0,0-3.07,2.66,26.94,26.94,0,0,0-2.66,3.27,25.18,25.18,0,0,0-2.05,3.58A20.35,20.35,0,0,0,1055.76,144.94Z"/><path d="M1085.29,154.75c.7-2.75,1.38-5.3,2-7.67s1.29-4.63,1.92-6.8,1.22-4.27,1.81-6.31,1.14-4.11,1.68-6.22a11.49,11.49,0,0,0,.37-2.38,13.67,13.67,0,0,1,.34-2.37,1.76,1.76,0,0,1,.51-.76,4.47,4.47,0,0,1,.82-.58,4.77,4.77,0,0,1,1-.38,3.4,3.4,0,0,1,1-.14,4.77,4.77,0,0,1,1.63.23,2.87,2.87,0,0,1,1.06.61,2.22,2.22,0,0,1,.56.93,4.62,4.62,0,0,1,.16,1.22,7.82,7.82,0,0,1-.39,2.4c-.26.81-.57,1.7-1,2.66q1.65-1.31,3.39-2.46a27.3,27.3,0,0,1,3.59-2,22.12,22.12,0,0,1,3.78-1.41,15.21,15.21,0,0,1,4-.53,6.22,6.22,0,0,1,1.89.3,4.9,4.9,0,0,1,1.71.93,5.24,5.24,0,0,1,1.26,1.66,6.09,6.09,0,0,1,.58,2.49c1-.68,2.06-1.36,3.13-2a35,35,0,0,1,3.29-1.87,22.11,22.11,0,0,1,3.34-1.33,11.1,11.1,0,0,1,3.25-.51,10.55,10.55,0,0,1,3.89.61,5.86,5.86,0,0,1,3.69,4.06A11.51,11.51,0,0,1,1140,130a20,20,0,0,1-.32,3.48c-.21,1.2-.44,2.33-.7,3.41q-1,4.08-2.29,7.72c-.84,2.42-1.75,4.88-2.74,7.36l-.74,1.87a10.88,10.88,0,0,1-.89,1.81,5.17,5.17,0,0,1-1.2,1.37,2.52,2.52,0,0,1-1.6.54,4.32,4.32,0,0,1-2.85-.7,2.59,2.59,0,0,1-.77-2,8.1,8.1,0,0,1,0-.81,3.61,3.61,0,0,1,.17-.88,10.87,10.87,0,0,1,.63-1.53q.49-1,1.08-2.16l1.14-2.34a16.32,16.32,0,0,0,.84-2.06c.31-1,.66-2.17,1.07-3.5s.81-2.65,1.18-4,.69-2.63.93-3.83a15.16,15.16,0,0,0,.37-2.94,5.51,5.51,0,0,0-.1-1.06,2.56,2.56,0,0,0-.37-.91,1.92,1.92,0,0,0-.74-.63,2.56,2.56,0,0,0-1.21-.25,6.84,6.84,0,0,0-2.52.6,21.27,21.27,0,0,0-3,1.56,29.76,29.76,0,0,0-3,2.18,22.77,22.77,0,0,0-2.53,2.41,10.47,10.47,0,0,1-1.41,1.37,5.93,5.93,0,0,1-1.33.81q-.07.15-.36.93c-.18.53-.41,1.16-.66,1.9s-.53,1.54-.81,2.39-.55,1.65-.79,2.39-.45,1.36-.62,1.87a8.18,8.18,0,0,0-.24.82c-.17.66-.31,1.33-.43,2s-.22,1.36-.31,2-.18,1.31-.27,2a7.68,7.68,0,0,1-.49,2,3.5,3.5,0,0,1-1.12,1.52,3.37,3.37,0,0,1-2.13.6,2.44,2.44,0,0,1-1.28-.35,3.6,3.6,0,0,1-1-.9,4.27,4.27,0,0,1-.66-1.23,4.46,4.46,0,0,1-.28-1.38q.8-3.16,1.58-5.7c.51-1.69,1-3.3,1.54-4.85s1-3.1,1.5-4.66,1-3.27,1.42-5.15a12.42,12.42,0,0,0,.28-1.32,7.25,7.25,0,0,0,.11-1.14,2.56,2.56,0,0,0-.35-1.39,1.37,1.37,0,0,0-1.23-.54,7.51,7.51,0,0,0-2.87.58,14,14,0,0,0-3.07,1.81,42.81,42.81,0,0,0-3.68,3.12q-2,1.9-4.66,4.54a14.11,14.11,0,0,0-.73,2c-.31,1-.62,2-.94,3.06s-.6,2.08-.86,3-.42,1.54-.49,1.85a23.17,23.17,0,0,0-.53,2.48c-.09.67-.17,1.27-.24,1.81,0,.28-.12.74-.21,1.39a10.41,10.41,0,0,1-.51,1.95,5.87,5.87,0,0,1-1,1.74,2.25,2.25,0,0,1-1.76.75,4,4,0,0,1-2.65-.87,2.8,2.8,0,0,1-1-2.22,3.33,3.33,0,0,1,0-.46C1085.21,155.06,1085.24,154.91,1085.29,154.75Z"/><path d="M1164.18,155.55a14.18,14.18,0,0,1,.25-2.44,21.79,21.79,0,0,0,.24-3.53c-.77.56-1.63,1.23-2.56,2s-1.91,1.51-2.92,2.22a22,22,0,0,1-3,1.77,6.46,6.46,0,0,1-2.79.72,6.36,6.36,0,0,1-2-.31,5.23,5.23,0,0,1-1.61-.85,10.29,10.29,0,0,1-2.69-2.95,6.94,6.94,0,0,1-.83-3.45,10.59,10.59,0,0,1,.16-1.82c.1-.64.26-1.36.47-2.18a30.64,30.64,0,0,1,4.59-10.29,31.39,31.39,0,0,1,8.07-8.06,9.7,9.7,0,0,1,3.73-1.67,18.62,18.62,0,0,1,3.69-.37,17.42,17.42,0,0,1,1.81.1l1.81.21c.54-.11,1-.2,1.32-.24a7.3,7.3,0,0,1,1.07-.07,4.74,4.74,0,0,1,1.76.28,3,3,0,0,1,1.12.75,3,3,0,0,1,.62,1.09,4.24,4.24,0,0,1,.19,1.29,5.29,5.29,0,0,1-.28,1.74c-.19.55-.38,1.1-.56,1.67l-4.64,18.52c-.1,1-.18,1.94-.25,2.78a12.21,12.21,0,0,1-.42,2.36l-.26.79a3.19,3.19,0,0,1-.51.91,3.43,3.43,0,0,1-.88.76,2.67,2.67,0,0,1-1.37.31,8.1,8.1,0,0,1-1.74-.14,2.65,2.65,0,0,1-1-.4,1.24,1.24,0,0,1-.45-.63A3.23,3.23,0,0,1,1164.18,155.55Zm-11.67-10.61c-.09.33-.19.79-.3,1.4a10.29,10.29,0,0,0-.16,1.83,5.11,5.11,0,0,0,.28,1.71,1.17,1.17,0,0,0,1.23.75,5.91,5.91,0,0,0,2.76-.65,13.07,13.07,0,0,0,2.41-1.56c1-.82,2-1.74,3.08-2.76a40.93,40.93,0,0,0,3-3.22,28.1,28.1,0,0,0,2.46-3.46,14.17,14.17,0,0,0,1.57-3.53,21.37,21.37,0,0,0,.47-2.36,16.69,16.69,0,0,0,.19-2.39,2.11,2.11,0,0,0-.21-.9.82.82,0,0,0-.81-.44,9.75,9.75,0,0,0-3.46.67,16,16,0,0,0-3.36,1.79,20.45,20.45,0,0,0-3.07,2.66,26.94,26.94,0,0,0-2.66,3.27,25.18,25.18,0,0,0-2.05,3.58A20.35,20.35,0,0,0,1152.51,144.94Z"/><path d="M1207,128.2a7.09,7.09,0,0,0-2.64.58,17.91,17.91,0,0,0-2.92,1.57c-1,.65-2,1.4-3.08,2.23s-2.06,1.69-3.07,2.58c-.52.45-1,.85-1.48,1.22a5.86,5.86,0,0,1-1.4.82,15.19,15.19,0,0,0-1,2.13c-.36.88-.72,1.84-1.07,2.88s-.69,2.11-1,3.2-.58,2.11-.79,3c-.11.5-.21,1-.28,1.44s-.15,1-.24,1.5-.21,1.09-.34,1.7-.28,1.29-.47,2a2.52,2.52,0,0,1-.56,1.08,3.19,3.19,0,0,1-.81.61,2.46,2.46,0,0,1-.81.26,4.25,4.25,0,0,1-.6.06,3.48,3.48,0,0,1-2.18-.64,2.93,2.93,0,0,1-.84-2.46c0-.33,0-.67,0-1a7.81,7.81,0,0,1,.21-1.22c.52-2.22,1-4.23,1.5-6s1-3.43,1.46-5,1-2.95,1.49-4.3,1-2.71,1.55-4.08,1.08-2.79,1.65-4.25,1.19-3.09,1.85-4.87a1.88,1.88,0,0,1,1.1-1,4.78,4.78,0,0,1,1.92-.4,3.78,3.78,0,0,1,2.2.6,2,2,0,0,1,.86,1.72,2.72,2.72,0,0,1-.07.39,4.22,4.22,0,0,1-.21.59l-1.55,3.66c1-.77,2-1.55,3.08-2.32a31.79,31.79,0,0,1,3.28-2.09,21,21,0,0,1,3.39-1.51,10.33,10.33,0,0,1,3.36-.58,7.34,7.34,0,0,1,5.28,1.81c1.26,1.21,1.89,3.07,1.89,5.61a19.22,19.22,0,0,1-.75,5q-.77,2.77-1.9,6t-2.46,6.68c-.88,2.33-1.69,4.71-2.44,7.12a12.92,12.92,0,0,1-.65,1.65,3.37,3.37,0,0,1-.8,1.07,2.59,2.59,0,0,1-1.07.58,5.38,5.38,0,0,1-1.49.18,2.72,2.72,0,0,1-1.9-.51,2.19,2.19,0,0,1-.53-1.63,12,12,0,0,1,.3-2.41c.2-1,.48-2,.84-3.13s.79-2.35,1.27-3.64,1-2.6,1.56-3.94c.45-1.07.89-2.15,1.32-3.23s.82-2.12,1.16-3.13.62-2,.83-2.88a11.44,11.44,0,0,0,.32-2.53,3.75,3.75,0,0,0-.48-1.92A1.87,1.87,0,0,0,1207,128.2Z"/><path d="M883.42,237.24a2,2,0,0,1,.51.07l.51.16c.19.06.4.11.64.16a4.47,4.47,0,0,0,.91.07,22,22,0,0,0,3.67-.35,30.09,30.09,0,0,0,3.82-.91,16.49,16.49,0,0,0,3.07-1.29c.86-.48,1.35-1,1.46-1.49a3.16,3.16,0,0,0,.11-.74,1.59,1.59,0,0,0-.58-1.14,7.21,7.21,0,0,0-1.46-1,17.63,17.63,0,0,0-1.9-.91c-.68-.29-1.31-.54-1.9-.78l-1.19-.49a12.32,12.32,0,0,1-1.8-.86,10,10,0,0,1-1.63-1.18,7.81,7.81,0,0,1-1.34-1.56,6.94,6.94,0,0,1-.86-2.06c-.09-.33-.17-.66-.23-1a5.93,5.93,0,0,1-.08-1.06,4.59,4.59,0,0,1,.61-2.09,11.4,11.4,0,0,1,1.65-2.34,19.28,19.28,0,0,1,2.36-2.21,14.6,14.6,0,0,1,2.76-1.76c.7-.49,1.38-.94,2-1.34a14.88,14.88,0,0,1,2-1,12.76,12.76,0,0,1,2-.66,9.21,9.21,0,0,1,2.2-.25c.7,0,1.46,0,2.29.1a8.24,8.24,0,0,1,2.25.5,4.36,4.36,0,0,1,1.7,1.14,2.88,2.88,0,0,1,.69,2,6.6,6.6,0,0,1-.11,1,6.89,6.89,0,0,1-.35,1.27,4.53,4.53,0,0,1-.6,1.09,1,1,0,0,1-.84.45,2.58,2.58,0,0,1-1.34-.31,6.26,6.26,0,0,1-1-.69,8.26,8.26,0,0,0-.88-.68,1.85,1.85,0,0,0-1.12-.32,7.07,7.07,0,0,0-1.88.3,15.15,15.15,0,0,0-2.2.81,20.23,20.23,0,0,0-2.2,1.17,19.2,19.2,0,0,0-1.93,1.38,8.64,8.64,0,0,0-1.39,1.38,2.16,2.16,0,0,0-.53,1.25,1.34,1.34,0,0,0,.39,1,3.58,3.58,0,0,0,1,.66,17.58,17.58,0,0,0,1.78.85l2,.84c.68.28,1.34.56,2,.85s1.2.53,1.67.77c.63.33,1.2.65,1.7,1a6.48,6.48,0,0,1,1.29,1,4,4,0,0,1,.8,1.27,4.38,4.38,0,0,1,.29,1.65,6.84,6.84,0,0,1-.07.91c0,.31-.12.66-.22,1.06a8.74,8.74,0,0,1-.36,1.23c-.18.47-.37.93-.57,1.39a11.75,11.75,0,0,1-.61,1.23,3,3,0,0,1-.53.72,19.42,19.42,0,0,1-3.23,2.37,29.38,29.38,0,0,1-3.89,1.94,27.52,27.52,0,0,1-4,1.31,15.77,15.77,0,0,1-3.71.5,5.84,5.84,0,0,1-1.86-.34,8.16,8.16,0,0,1-1.89-.88,6,6,0,0,1-1.44-1.24,2.26,2.26,0,0,1-.58-1.41,1.87,1.87,0,0,1,.21-.79,4.34,4.34,0,0,1,.53-.81,3.4,3.4,0,0,1,.69-.63A1.16,1.16,0,0,1,883.42,237.24Z"/><path d="M929.44,242a14.08,14.08,0,0,1,.25-2.44,21.79,21.79,0,0,0,.24-3.53c-.77.56-1.62,1.23-2.56,2s-1.91,1.51-2.92,2.22a22,22,0,0,1-3,1.77,6.42,6.42,0,0,1-2.79.72,6.3,6.3,0,0,1-2-.31,5.17,5.17,0,0,1-1.62-.85,10.44,10.44,0,0,1-2.69-2.95,6.94,6.94,0,0,1-.83-3.45,11.69,11.69,0,0,1,.16-1.82c.11-.64.26-1.36.48-2.18a30.82,30.82,0,0,1,4.58-10.29,31.59,31.59,0,0,1,8.07-8.07,10.08,10.08,0,0,1,3.73-1.67,19.38,19.38,0,0,1,3.69-.36,17.42,17.42,0,0,1,1.81.1l1.81.21c.54-.11,1-.2,1.32-.24a7.4,7.4,0,0,1,1.07-.07A4.74,4.74,0,0,1,940,211a3,3,0,0,1,1.12.75,2.89,2.89,0,0,1,.62,1.09,4.24,4.24,0,0,1,.19,1.29,5.29,5.29,0,0,1-.28,1.74c-.19.55-.37,1.1-.56,1.67l-4.64,18.52c-.1,1-.18,1.94-.25,2.78a12.21,12.21,0,0,1-.42,2.36l-.26.79a3.19,3.19,0,0,1-.51.91,3.43,3.43,0,0,1-.88.76,2.65,2.65,0,0,1-1.37.31,8.1,8.1,0,0,1-1.74-.14,2.65,2.65,0,0,1-1-.4,1.24,1.24,0,0,1-.45-.63A3.23,3.23,0,0,1,929.44,242Zm-11.67-10.61c-.09.33-.19.79-.3,1.4a11.31,11.31,0,0,0-.16,1.83,5.11,5.11,0,0,0,.28,1.71,1.18,1.18,0,0,0,1.24.75,5.9,5.9,0,0,0,2.75-.65,13.07,13.07,0,0,0,2.41-1.56c1-.82,2-1.74,3.08-2.76a39.08,39.08,0,0,0,2.95-3.22,28.1,28.1,0,0,0,2.46-3.46,14.17,14.17,0,0,0,1.57-3.53,19.28,19.28,0,0,0,.47-2.36,16.82,16.82,0,0,0,.2-2.39,2,2,0,0,0-.22-.9.81.81,0,0,0-.8-.44,9.76,9.76,0,0,0-3.47.67,15.72,15.72,0,0,0-3.35,1.79,20,20,0,0,0-3.08,2.66,25.94,25.94,0,0,0-2.65,3.27,24.32,24.32,0,0,0-2.06,3.58A21.16,21.16,0,0,0,917.77,231.34Z"/><path d="M947.3,241.15c.7-2.75,1.38-5.3,2-7.67s1.3-4.63,1.92-6.8,1.22-4.27,1.81-6.31,1.15-4.11,1.68-6.22a10.86,10.86,0,0,0,.37-2.38,13.67,13.67,0,0,1,.34-2.37,1.76,1.76,0,0,1,.51-.76,4.47,4.47,0,0,1,.82-.58,4.77,4.77,0,0,1,1-.38,3.4,3.4,0,0,1,1-.14,4.77,4.77,0,0,1,1.63.23,2.79,2.79,0,0,1,1.06.61,2.12,2.12,0,0,1,.56.93,4.6,4.6,0,0,1,.16,1.21,7.84,7.84,0,0,1-.39,2.41c-.26.81-.57,1.7-1,2.66q1.65-1.31,3.39-2.46a27.3,27.3,0,0,1,3.59-2,22.12,22.12,0,0,1,3.78-1.41,15.21,15.21,0,0,1,4-.53,6.33,6.33,0,0,1,1.9.3,5,5,0,0,1,1.7.93,5.27,5.27,0,0,1,1.27,1.66,6.26,6.26,0,0,1,.58,2.49c1-.68,2.05-1.36,3.13-2.05a33.62,33.62,0,0,1,3.28-1.87,22.54,22.54,0,0,1,3.34-1.33,11.15,11.15,0,0,1,3.25-.51,10.55,10.55,0,0,1,3.89.61,5.86,5.86,0,0,1,3.69,4.06,11.07,11.07,0,0,1,.37,2.92,20,20,0,0,1-.32,3.48c-.21,1.2-.44,2.33-.7,3.41q-1,4.08-2.28,7.72c-.85,2.42-1.76,4.88-2.75,7.36l-.74,1.87a10.88,10.88,0,0,1-.89,1.81,5.17,5.17,0,0,1-1.2,1.37,2.5,2.5,0,0,1-1.6.54,4.27,4.27,0,0,1-2.84-.7,2.56,2.56,0,0,1-.78-2,8.1,8.1,0,0,1,0-.81,3.61,3.61,0,0,1,.17-.88,10,10,0,0,1,.64-1.53c.32-.67.68-1.39,1.07-2.16s.77-1.55,1.14-2.34a15,15,0,0,0,.84-2.06l1.08-3.5c.41-1.32.8-2.65,1.17-4s.69-2.63.94-3.84a15.8,15.8,0,0,0,.37-2.93,5.53,5.53,0,0,0-.11-1.06,2.39,2.39,0,0,0-.37-.91,1.92,1.92,0,0,0-.74-.63,2.53,2.53,0,0,0-1.21-.25,6.79,6.79,0,0,0-2.51.6,21.35,21.35,0,0,0-3,1.56,29.33,29.33,0,0,0-3,2.18,22.77,22.77,0,0,0-2.53,2.41,10.47,10.47,0,0,1-1.41,1.37,5.93,5.93,0,0,1-1.33.81c0,.1-.17.41-.35.93l-.67,1.9c-.26.74-.53,1.54-.81,2.39s-.55,1.65-.79,2.39-.45,1.36-.62,1.87a8.18,8.18,0,0,0-.24.82c-.17.66-.31,1.33-.42,2s-.23,1.36-.32,2-.18,1.31-.26,2a8.11,8.11,0,0,1-.5,2,3.5,3.5,0,0,1-1.12,1.52,3.35,3.35,0,0,1-2.13.6,2.44,2.44,0,0,1-1.28-.35,3.43,3.43,0,0,1-1-.9,4.07,4.07,0,0,1-.67-1.23,4.46,4.46,0,0,1-.28-1.38c.54-2.11,1.06-4,1.58-5.7s1-3.3,1.55-4.85,1-3.1,1.49-4.66,1-3.27,1.42-5.15c.12-.45.21-.88.29-1.32A7.13,7.13,0,0,0,974,217a2.56,2.56,0,0,0-.35-1.39,1.37,1.37,0,0,0-1.23-.54,7.51,7.51,0,0,0-2.87.58,14,14,0,0,0-3.07,1.81,44.4,44.4,0,0,0-3.68,3.12c-1.34,1.27-2.9,2.78-4.65,4.54a12.63,12.63,0,0,0-.74,2q-.46,1.44-.93,3.06t-.87,3c-.25.93-.42,1.54-.49,1.85a23.17,23.17,0,0,0-.53,2.48c-.09.67-.17,1.27-.24,1.81,0,.28-.12.74-.21,1.39a10.41,10.41,0,0,1-.51,1.95,5.67,5.67,0,0,1-1,1.74,2.23,2.23,0,0,1-1.76.75,3.93,3.93,0,0,1-2.65-.88,2.77,2.77,0,0,1-1-2.21,2.25,2.25,0,0,1,0-.46A2.84,2.84,0,0,1,947.3,241.15Z"/><path d="M1019.83,195.27a14,14,0,0,1,.56-2.6,6.13,6.13,0,0,1,1-2,2.05,2.05,0,0,1,1.67-.79,4.35,4.35,0,0,1,1.25.21,5.81,5.81,0,0,1,1.3.58,3.73,3.73,0,0,1,1,.9,1.76,1.76,0,0,1,.43,1.16,2.52,2.52,0,0,1-.11.65,6.25,6.25,0,0,0-.17.72L1018,229.33c-.36,1.41-.65,2.75-.88,4s-.41,2.33-.53,3.15v.84a21.57,21.57,0,0,1-.14,2.3A9.84,9.84,0,0,1,1016,242a5,5,0,0,1-1.07,1.8,2.35,2.35,0,0,1-1.78.72,3.26,3.26,0,0,1-1.65-.41,3.62,3.62,0,0,1-1.16-1,4.49,4.49,0,0,1-.67-1.35,4.83,4.83,0,0,1-.21-1.35,11.41,11.41,0,0,1,.11-1.39c.07-.55.16-1.13.26-1.72s.22-1.2.34-1.8.23-1.12.35-1.56l9.07-36C1019.62,197.07,1019.71,196.2,1019.83,195.27Z"/><path d="M1026.75,229.9a4.09,4.09,0,0,1,.81-2.57,3.93,3.93,0,0,1,2.15-1.41c.26-.51.65-1.21,1.19-2.09a32.12,32.12,0,0,1,2-2.86,35.64,35.64,0,0,1,2.72-3.12A23.21,23.21,0,0,1,1039,215a18.12,18.12,0,0,1,4-2.09,12.58,12.58,0,0,1,4.52-.81,11.45,11.45,0,0,1,3.55.49,6.77,6.77,0,0,1,2.49,1.37,5.59,5.59,0,0,1,1.48,2.09,6.86,6.86,0,0,1,.49,2.62,8.22,8.22,0,0,1-.31,2.29,7.91,7.91,0,0,1-1.83,3.44,14.06,14.06,0,0,1-3.15,2.59,20.63,20.63,0,0,1-3.94,1.84,41.73,41.73,0,0,1-4.25,1.23c-1.42.33-2.78.58-4.1.76s-2.44.31-3.41.4a7.44,7.44,0,0,0-.54,1.6,8.32,8.32,0,0,0-.23,1.88,3.64,3.64,0,0,0,1.62,3.17,7.7,7.7,0,0,0,4.46,1.12,13.17,13.17,0,0,0,3.17-.37,17.44,17.44,0,0,0,2.86-.95,25.2,25.2,0,0,0,2.55-1.26c.8-.46,1.52-.91,2.18-1.36a24.62,24.62,0,0,1,2.41-1.42,4.51,4.51,0,0,1,2-.58c.59,0,1,.15,1.13.44a1.9,1.9,0,0,1,.24.93,5,5,0,0,1,0,.55,4.17,4.17,0,0,1,0,.44,5.94,5.94,0,0,1-.7,1.82,5.85,5.85,0,0,1-1.34,1.59,24,24,0,0,1-7.5,4.11,26.87,26.87,0,0,1-8.21,1.23c-.57,0-1.23,0-2-.11a15.17,15.17,0,0,1-2.37-.42,12.17,12.17,0,0,1-2.43-.91,7.77,7.77,0,0,1-2.12-1.58,7.61,7.61,0,0,1-1.52-2.43,9.45,9.45,0,0,1-.58-3.48,17.35,17.35,0,0,1,.46-3.69,1.57,1.57,0,0,1-1.27-1.65Zm22-9.74a.81.81,0,0,0,.07-.32v-.32a1.6,1.6,0,0,0-.7-1.42,2.92,2.92,0,0,0-1.69-.47,6.33,6.33,0,0,0-3,.81,13.74,13.74,0,0,0-2.81,2,17.86,17.86,0,0,0-2.34,2.6,17,17,0,0,0-1.58,2.51,35.09,35.09,0,0,0,4.64-.68,18.59,18.59,0,0,0,3.67-1.2,9.35,9.35,0,0,0,2.53-1.62A4,4,0,0,0,1048.76,220.16Z"/><path d="M1063.53,239.85q.45-2.46,1-5.42t1.23-6q.64-3,1.23-5.94t1-5.34c0-.23,0-.44,0-.62V216a17.85,17.85,0,0,1,.14-2.18,13.9,13.9,0,0,1,.39-2,4.27,4.27,0,0,1,.86-1.81,2.06,2.06,0,0,1,1.53-.47,2.67,2.67,0,0,1,2.6,1.47,4.56,4.56,0,0,1,.45,1.53,13,13,0,0,1,.11,1.78c0,.33,0,.69,0,1.09s0,.71,0,1c.66-.68,1.35-1.38,2.09-2.1a19.69,19.69,0,0,1,2.36-1.93,13.65,13.65,0,0,1,2.63-1.42,7.61,7.61,0,0,1,2.9-.57,6.56,6.56,0,0,1,1.18.11,10.59,10.59,0,0,1,1.18.28,12.4,12.4,0,0,1,1.46.48,6.09,6.09,0,0,1,1.46.82,7.81,7.81,0,0,1,2,2.2,5.13,5.13,0,0,1,.79,2.69,3.55,3.55,0,0,1-.21,1.14,4.17,4.17,0,0,1-.58,1.13,3.42,3.42,0,0,1-.86.84,1.92,1.92,0,0,1-1.09.33,4.56,4.56,0,0,1-1.46-.3,4,4,0,0,1-1.42-.79,2.81,2.81,0,0,1-.51-.59c-.18-.26-.34-.52-.5-.78l-.42-.72a2.58,2.58,0,0,0-.3-.44l-.38-.05-.39,0a6.82,6.82,0,0,0-3.41.92,15.39,15.39,0,0,0-3,2.23,25.44,25.44,0,0,0-2.59,2.81c-.78,1-1.47,1.89-2.06,2.69-.46,1.9-1,3.92-1.56,6.06s-1.14,4.39-1.7,6.74V239c0,.7,0,1.41-.08,2.14a5.65,5.65,0,0,1-.42,1.93,3,3,0,0,1-1.1.9,3.57,3.57,0,0,1-1.67.37,2.6,2.6,0,0,1-2.22-1,3.63,3.63,0,0,1-.74-2.26A4.47,4.47,0,0,1,1063.53,239.85Z"/><path d="M859.69,323.64a2,2,0,0,1,.51.07l.51.16c.19.06.4.11.63.16a4.65,4.65,0,0,0,.92.07,22,22,0,0,0,3.67-.35,28.46,28.46,0,0,0,3.82-.92,15.85,15.85,0,0,0,3.07-1.28c.86-.48,1.35-1,1.46-1.49a3.16,3.16,0,0,0,.11-.74,1.59,1.59,0,0,0-.58-1.14,7.5,7.5,0,0,0-1.46-1,17.63,17.63,0,0,0-1.9-.91c-.68-.29-1.31-.54-1.9-.78l-1.19-.49a12.32,12.32,0,0,1-1.8-.86,10,10,0,0,1-1.63-1.18,7.5,7.5,0,0,1-1.34-1.56,6.94,6.94,0,0,1-.86-2.06c-.09-.33-.17-.66-.23-1a5.93,5.93,0,0,1-.08-1.06,4.59,4.59,0,0,1,.61-2.09,11.4,11.4,0,0,1,1.65-2.34,19.28,19.28,0,0,1,2.36-2.21,14.6,14.6,0,0,1,2.76-1.76c.7-.49,1.38-.94,2-1.34a14.88,14.88,0,0,1,2-1,13.9,13.9,0,0,1,2-.67,9.76,9.76,0,0,1,2.2-.24c.7,0,1.46,0,2.28.1a8.07,8.07,0,0,1,2.25.5,4.33,4.33,0,0,1,1.71,1.14,2.88,2.88,0,0,1,.69,2,6.6,6.6,0,0,1-.11,1,6.89,6.89,0,0,1-.35,1.27,4.53,4.53,0,0,1-.6,1.09,1,1,0,0,1-.84.45,2.58,2.58,0,0,1-1.34-.31,6.26,6.26,0,0,1-1-.69,8.26,8.26,0,0,0-.88-.68,1.85,1.85,0,0,0-1.12-.32,7.07,7.07,0,0,0-1.88.3,15.15,15.15,0,0,0-2.2.81,20.23,20.23,0,0,0-2.2,1.17,20.93,20.93,0,0,0-1.93,1.37,8.66,8.66,0,0,0-1.39,1.39,2.16,2.16,0,0,0-.53,1.25,1.34,1.34,0,0,0,.39,1,3.58,3.58,0,0,0,1,.66,17.58,17.58,0,0,0,1.78.85l2,.84c.68.28,1.34.56,2,.85s1.2.53,1.67.77c.63.33,1.2.65,1.7,1a6.48,6.48,0,0,1,1.29,1,4,4,0,0,1,.8,1.27,4.38,4.38,0,0,1,.29,1.65,5.5,5.5,0,0,1-.08.91,9.37,9.37,0,0,1-.21,1.06,7.73,7.73,0,0,1-.37,1.23c-.17.47-.36.93-.56,1.39a11.75,11.75,0,0,1-.61,1.23,3,3,0,0,1-.53.72,19.42,19.42,0,0,1-3.23,2.37,29.38,29.38,0,0,1-3.89,1.94,27.52,27.52,0,0,1-4,1.31,15.77,15.77,0,0,1-3.71.5,5.84,5.84,0,0,1-1.86-.34,8.16,8.16,0,0,1-1.89-.88,6,6,0,0,1-1.44-1.24,2.26,2.26,0,0,1-.58-1.41,1.87,1.87,0,0,1,.21-.79,3.9,3.9,0,0,1,.53-.81,3.4,3.4,0,0,1,.69-.63A1.16,1.16,0,0,1,859.69,323.64Z"/><path d="M893.65,318.93a30.16,30.16,0,0,1,.67-6.13c.45-2.12.92-4.16,1.41-6.1a8.91,8.91,0,0,1-1.87-.28,8,8,0,0,1-1.72-.67,4.06,4.06,0,0,1-1.26-1,2.2,2.2,0,0,1-.5-1.42,3.26,3.26,0,0,1,.14-.81,4.78,4.78,0,0,1,.41-1,2.77,2.77,0,0,1,.68-.81,1.52,1.52,0,0,1,.95-.33h4.71a.91.91,0,0,0,.92-.58,9.62,9.62,0,0,0,.39-1.14c.3-1.36.59-2.54.86-3.54s.49-1.84.68-2.53.34-1.25.44-1.68a4.47,4.47,0,0,0,.16-1,8.26,8.26,0,0,0,0-.88c0-.28,0-.67,0-1.16v-.35c0-.19,0-.44.05-.74a7.4,7.4,0,0,1,.34-1.3,3.22,3.22,0,0,1,.77-1.27,2.15,2.15,0,0,1,1.65-.59,3.18,3.18,0,0,1,1.62.38,3.33,3.33,0,0,1,1.09,1,4.7,4.7,0,0,1,.63,1.44A6.43,6.43,0,0,1,907,288a6.89,6.89,0,0,1-.17,1.58l-2.57,9.85c1.27-.21,2.39-.41,3.38-.6l3-.56c1.08-.22,2-.41,2.79-.6l2-.48,1.42-.31a5.1,5.1,0,0,1,1-.13,7.49,7.49,0,0,1,1.14.09,3.81,3.81,0,0,1,1,.3,1.9,1.9,0,0,1,.72.6,1.69,1.69,0,0,1,.28,1,3.24,3.24,0,0,1-.33,1.49,3.88,3.88,0,0,1-.87,1.13,4.77,4.77,0,0,1-1.19.77,6.36,6.36,0,0,1-1.34.44c-.37.07-.86.18-1.46.32l-2,.45-2.24.53-2.25.56-2.76.71c-.76.18-1.41.33-2,.42l-1.32.21a5.75,5.75,0,0,1-.82.07c-.45,1.34-.83,2.65-1.16,3.94s-.61,2.49-.83,3.6-.39,2.11-.49,3a17.4,17.4,0,0,0-.16,2.06,8.89,8.89,0,0,0,.18,1.81,4,4,0,0,0,.59,1.49,3,3,0,0,0,1.15,1,3.89,3.89,0,0,0,1.81.37,7.28,7.28,0,0,0,3.65-1,17.41,17.41,0,0,0,3.43-2.58,33.07,33.07,0,0,0,3.1-3.43c1-1.24,1.86-2.43,2.68-3.55a1.28,1.28,0,0,1,1.09-.63,2.06,2.06,0,0,1,.51.07,1.83,1.83,0,0,1,.58.24,1.62,1.62,0,0,1,.48.46,1.15,1.15,0,0,1,.19.67,2.12,2.12,0,0,1,0,.42,20.37,20.37,0,0,1-1.74,4.38q-1.18,2.19-2.41,4.41A7.48,7.48,0,0,1,914,324.1a16.8,16.8,0,0,1-1.49,1.42c-.54.46-1.1.9-1.69,1.31s-1.14.77-1.65,1.1a8.43,8.43,0,0,1-2.92,1.16,15.68,15.68,0,0,1-3.06.32,9.53,9.53,0,0,1-4.06-.83,8.71,8.71,0,0,1-3-2.25,9.77,9.77,0,0,1-1.84-3.32A12.55,12.55,0,0,1,893.65,318.93Z"/><path d="M915.45,346.11a2.8,2.8,0,0,1-2.16-.79,2.51,2.51,0,0,1-.72-1.71,3.93,3.93,0,0,1,.86-2.55,9.58,9.58,0,0,1,2.06-1.89,20.61,20.61,0,0,1,2.44-1.48,11.48,11.48,0,0,0,2-1.28,17.4,17.4,0,0,0,2.81-3.06,21.91,21.91,0,0,0,1.93-3.2,51.5,51.5,0,0,0,2.13-5.14q1-2.81,1.84-5.81t1.53-6.1c.46-2.07.86-4.06,1.22-6a9.39,9.39,0,0,0,.19-1.6c0-.5,0-1,0-1.49a15.55,15.55,0,0,1,.35-2.94,4.14,4.14,0,0,1,.79-1.7,2.41,2.41,0,0,1,1.24-.8,6.85,6.85,0,0,1,1.67-.19,3.32,3.32,0,0,1,2.74,1,4.48,4.48,0,0,1,.77,2.83,23.09,23.09,0,0,1-.3,3.06c-.2,1.36-.49,2.94-.88,4.74s-.86,3.76-1.42,5.87-1.21,4.26-1.93,6.44-1.53,4.32-2.41,6.43a56.24,56.24,0,0,1-2.83,5.87,15,15,0,0,1-.83,1.25c-.32.43-.65.87-1,1.3l-1,1.25-.93,1.09q-1.41,1.65-2.64,2.88a17,17,0,0,1-2.44,2.06,10.27,10.27,0,0,1-2.44,1.25A8.12,8.12,0,0,1,915.45,346.11Zm18.28-57.55a3.77,3.77,0,0,1,.67-2.25,5.78,5.78,0,0,1,1.65-1.58,14.76,14.76,0,0,1,1.39-.8,3.1,3.1,0,0,1,1.32-.29,4,4,0,0,1,1.6.29,2.73,2.73,0,0,1,1,.81,3.37,3.37,0,0,1,.54,1.13,4.76,4.76,0,0,1,.16,1.25,6.2,6.2,0,0,1-.46,2.39,5.56,5.56,0,0,1-1.79,2.18,5.3,5.3,0,0,1-1,.61,2.38,2.38,0,0,1-1,.23,4.25,4.25,0,0,1-3-1A3.77,3.77,0,0,1,933.73,288.56Z"/><path d="M944.49,316.3a4.09,4.09,0,0,1,.81-2.57,3.9,3.9,0,0,1,2.14-1.41c.26-.51.66-1.21,1.2-2.09a31.86,31.86,0,0,1,2-2.86,36,36,0,0,1,2.73-3.12,23.12,23.12,0,0,1,3.37-2.84,17.92,17.92,0,0,1,4-2.09,12.62,12.62,0,0,1,4.52-.81,11.45,11.45,0,0,1,3.55.49,6.9,6.9,0,0,1,2.5,1.37,5.56,5.56,0,0,1,1.47,2.09,6.87,6.87,0,0,1,.5,2.62,8.23,8.23,0,0,1-.32,2.29,7.91,7.91,0,0,1-1.83,3.44A14.23,14.23,0,0,1,968,313.4a20.63,20.63,0,0,1-3.94,1.84,42.66,42.66,0,0,1-4.26,1.23c-1.41.33-2.78.58-4.09.76s-2.45.31-3.41.4a8,8,0,0,0-.55,1.6,8.3,8.3,0,0,0-.22,1.88,3.63,3.63,0,0,0,1.61,3.17,7.74,7.74,0,0,0,4.47,1.12,13.09,13.09,0,0,0,3.16-.37,17.56,17.56,0,0,0,2.87-.95,25.2,25.2,0,0,0,2.55-1.26c.79-.46,1.52-.91,2.18-1.36a24.53,24.53,0,0,1,2.4-1.42,4.58,4.58,0,0,1,2-.58c.59,0,1,.15,1.13.44a1.91,1.91,0,0,1,.25.93c0,.19,0,.37,0,.55a4.17,4.17,0,0,1-.05.44,6,6,0,0,1-.71,1.82,5.81,5.81,0,0,1-1.33,1.59,23.94,23.94,0,0,1-7.51,4.11,26.82,26.82,0,0,1-8.21,1.23c-.56,0-1.22,0-2-.11a15.09,15.09,0,0,1-2.38-.42,11.86,11.86,0,0,1-2.42-.91,7.67,7.67,0,0,1-2.13-1.58,7.59,7.59,0,0,1-1.51-2.43,9.25,9.25,0,0,1-.58-3.48,17.29,17.29,0,0,1,.45-3.69,1.55,1.55,0,0,1-1.26-1.65Zm22-9.74a1.09,1.09,0,0,0,.07-.32v-.32a1.61,1.61,0,0,0-.71-1.42,2.89,2.89,0,0,0-1.68-.47,6.4,6.4,0,0,0-3,.8,14,14,0,0,0-2.82,2,17.78,17.78,0,0,0-2.33,2.6A18,18,0,0,0,954.4,312a34.84,34.84,0,0,0,4.64-.68,18.93,18.93,0,0,0,3.68-1.2,9.68,9.68,0,0,0,2.53-1.62A4.15,4.15,0,0,0,966.5,306.56Z"/><path d="M981.26,326.25c.31-1.65.66-3.45,1.06-5.42s.81-4,1.23-6,.83-4,1.23-5.94.74-3.72,1-5.34a4.8,4.8,0,0,1,0-.62v-.58a17.85,17.85,0,0,1,.14-2.18,17.31,17.31,0,0,1,.39-2,4.39,4.39,0,0,1,.86-1.81,2.09,2.09,0,0,1,1.53-.47,3,3,0,0,1,1.64.4,2.83,2.83,0,0,1,1,1.07,4.34,4.34,0,0,1,.46,1.53,14.81,14.81,0,0,1,.1,1.78c0,.33,0,.69,0,1.09s0,.71,0,1q1-1,2.1-2.1a18,18,0,0,1,2.35-1.93,13.44,13.44,0,0,1,2.64-1.42,7.53,7.53,0,0,1,2.9-.57,6.64,6.64,0,0,1,1.18.11,10.43,10.43,0,0,1,1.17.28,11.82,11.82,0,0,1,1.46.48,5.9,5.9,0,0,1,1.46.82,7.52,7.52,0,0,1,2,2.2,5.13,5.13,0,0,1,.79,2.69,3.55,3.55,0,0,1-.21,1.14,4.17,4.17,0,0,1-.58,1.13,3.27,3.27,0,0,1-.86.84,1.92,1.92,0,0,1-1.09.33,4.61,4.61,0,0,1-1.46-.3,4,4,0,0,1-1.42-.79,3.55,3.55,0,0,1-.51-.59c-.18-.26-.34-.52-.49-.78s-.3-.5-.42-.72a2.58,2.58,0,0,0-.3-.44l-.39-.05-.39,0a6.85,6.85,0,0,0-3.41.92,16,16,0,0,0-3,2.23,24.41,24.41,0,0,0-2.58,2.81c-.79,1-1.47,1.89-2.06,2.69q-.71,2.85-1.57,6.06c-.57,2.15-1.14,4.39-1.7,6.74v.88c0,.7,0,1.41-.07,2.14a6.16,6.16,0,0,1-.42,1.93,3.07,3.07,0,0,1-1.11.9,3.57,3.57,0,0,1-1.67.37,2.59,2.59,0,0,1-2.21-1,3.57,3.57,0,0,1-.74-2.26A4.86,4.86,0,0,1,981.26,326.25Z"/><path d="M1036.18,301a7.09,7.09,0,0,0-2.64.58,17.91,17.91,0,0,0-2.92,1.57,37.49,37.49,0,0,0-3.07,2.23c-1,.83-2.07,1.69-3.08,2.58-.52.45-1,.85-1.48,1.22a5.67,5.67,0,0,1-1.4.82,15.19,15.19,0,0,0-1,2.13c-.36.88-.72,1.84-1.07,2.88s-.69,2.11-1,3.2-.58,2.11-.8,3c-.11.5-.21,1-.28,1.44s-.15,1-.24,1.5-.21,1.09-.34,1.7-.28,1.29-.47,2a2.42,2.42,0,0,1-.56,1.07,3,3,0,0,1-.81.62,2.46,2.46,0,0,1-.81.26,4.25,4.25,0,0,1-.6.06,3.48,3.48,0,0,1-2.18-.64,2.93,2.93,0,0,1-.84-2.46c0-.33,0-.67,0-1a7.81,7.81,0,0,1,.21-1.22c.52-2.22,1-4.23,1.5-6s1-3.43,1.46-5,1-2.95,1.49-4.3,1-2.71,1.55-4.08l1.65-4.25q.85-2.21,1.85-4.87a1.91,1.91,0,0,1,1.1-1,4.78,4.78,0,0,1,1.92-.4,3.78,3.78,0,0,1,2.2.6,2,2,0,0,1,.86,1.72,2.72,2.72,0,0,1-.07.39,4.73,4.73,0,0,1-.21.59l-1.55,3.66c1-.77,2-1.55,3.08-2.32a31.79,31.79,0,0,1,3.28-2.09,20.69,20.69,0,0,1,3.4-1.51,10.23,10.23,0,0,1,3.35-.58,7.34,7.34,0,0,1,5.28,1.81c1.26,1.21,1.9,3.07,1.9,5.6a19.28,19.28,0,0,1-.76,5c-.5,1.85-1.14,3.84-1.9,6s-1.58,4.35-2.46,6.68-1.69,4.71-2.44,7.12a11.59,11.59,0,0,1-.65,1.65,3.5,3.5,0,0,1-.79,1.07,2.7,2.7,0,0,1-1.08.58,5.38,5.38,0,0,1-1.49.18,2.72,2.72,0,0,1-1.9-.51,2.19,2.19,0,0,1-.53-1.63,12,12,0,0,1,.3-2.41,30.62,30.62,0,0,1,.85-3.13c.36-1.14.78-2.35,1.26-3.64s1-2.6,1.57-3.94c.44-1.08.88-2.15,1.31-3.23s.82-2.12,1.16-3.13.62-2,.83-2.88a11.44,11.44,0,0,0,.32-2.53,3.75,3.75,0,0,0-.48-1.92A1.86,1.86,0,0,0,1036.18,301Z"/><path d="M1050.49,316.3a4.08,4.08,0,0,1,.8-2.57,3.93,3.93,0,0,1,2.15-1.41c.26-.51.65-1.21,1.19-2.09a32.12,32.12,0,0,1,2-2.86,34.24,34.24,0,0,1,2.72-3.12,23.21,23.21,0,0,1,3.38-2.84,17.7,17.7,0,0,1,4-2.09,12.58,12.58,0,0,1,4.52-.81,11.45,11.45,0,0,1,3.55.49,6.77,6.77,0,0,1,2.49,1.37,5.59,5.59,0,0,1,1.48,2.09,6.86,6.86,0,0,1,.49,2.62,8.22,8.22,0,0,1-.31,2.29,7.91,7.91,0,0,1-1.83,3.44,14.06,14.06,0,0,1-3.15,2.59,20.35,20.35,0,0,1-3.94,1.84,41.73,41.73,0,0,1-4.25,1.23c-1.42.33-2.78.58-4.09.76s-2.45.31-3.42.4a7.44,7.44,0,0,0-.54,1.6,8.32,8.32,0,0,0-.23,1.88,3.64,3.64,0,0,0,1.62,3.17,7.73,7.73,0,0,0,4.46,1.12,13.11,13.11,0,0,0,3.17-.37,17.13,17.13,0,0,0,2.86-.95,24.2,24.2,0,0,0,2.55-1.26c.8-.46,1.53-.91,2.18-1.36a25.85,25.85,0,0,1,2.41-1.42,4.54,4.54,0,0,1,2-.58c.59,0,1,.15,1.13.44a1.9,1.9,0,0,1,.24.93,5,5,0,0,1,0,.55,2.55,2.55,0,0,1,0,.44,5.94,5.94,0,0,1-.7,1.82,5.85,5.85,0,0,1-1.34,1.59,23.9,23.9,0,0,1-7.5,4.11,26.87,26.87,0,0,1-8.21,1.23c-.56,0-1.23,0-2-.11a15.17,15.17,0,0,1-2.37-.42,12.17,12.17,0,0,1-2.43-.91,7.77,7.77,0,0,1-2.12-1.58,7.61,7.61,0,0,1-1.52-2.43,9.45,9.45,0,0,1-.58-3.48,17.35,17.35,0,0,1,.46-3.69,1.55,1.55,0,0,1-1.26-1.65Zm22-9.74a.84.84,0,0,0,.07-.32v-.32a1.6,1.6,0,0,0-.7-1.42,2.92,2.92,0,0,0-1.69-.47,6.43,6.43,0,0,0-3,.8,14.19,14.19,0,0,0-2.81,2,17.86,17.86,0,0,0-2.34,2.6,17,17,0,0,0-1.58,2.51,35.09,35.09,0,0,0,4.64-.68,18.59,18.59,0,0,0,3.67-1.2,9.58,9.58,0,0,0,2.54-1.62A4,4,0,0,0,1072.49,306.56Z"/><path d="M1087.26,326.25c.3-1.65.66-3.45,1-5.42s.81-4,1.23-6,.84-4,1.23-5.94.74-3.72,1-5.34c0-.23,0-.44,0-.62v-.58a17.85,17.85,0,0,1,.14-2.18,13.9,13.9,0,0,1,.39-2,4.27,4.27,0,0,1,.86-1.81,2.06,2.06,0,0,1,1.53-.47,2.67,2.67,0,0,1,2.6,1.47,4.56,4.56,0,0,1,.46,1.53,14.81,14.81,0,0,1,.1,1.78c0,.33,0,.69,0,1.09s0,.71,0,1c.66-.68,1.35-1.38,2.09-2.1a18.77,18.77,0,0,1,2.36-1.93,13.65,13.65,0,0,1,2.63-1.42,7.61,7.61,0,0,1,2.9-.57,6.56,6.56,0,0,1,1.18.11,10.59,10.59,0,0,1,1.18.28,11.82,11.82,0,0,1,1.46.48,6.09,6.09,0,0,1,1.46.82,7.81,7.81,0,0,1,2,2.2,5.13,5.13,0,0,1,.79,2.69,3.55,3.55,0,0,1-.21,1.14,4.17,4.17,0,0,1-.58,1.13,3.42,3.42,0,0,1-.86.84,1.92,1.92,0,0,1-1.09.33,4.56,4.56,0,0,1-1.46-.3,4,4,0,0,1-1.42-.79,2.81,2.81,0,0,1-.51-.59c-.18-.26-.34-.52-.5-.78l-.42-.72a2.58,2.58,0,0,0-.3-.44l-.38-.05-.39,0a6.82,6.82,0,0,0-3.41.92,15.39,15.39,0,0,0-3,2.23,25.44,25.44,0,0,0-2.59,2.81c-.78,1-1.47,1.89-2.05,2.69-.47,1.9-1,3.92-1.57,6.06s-1.14,4.39-1.7,6.74v.88c0,.7,0,1.41-.07,2.14a5.89,5.89,0,0,1-.43,1.93,3,3,0,0,1-1.1.9,3.57,3.57,0,0,1-1.67.37,2.6,2.6,0,0,1-2.22-1,3.63,3.63,0,0,1-.74-2.26A4.47,4.47,0,0,1,1087.26,326.25Z"/><path d="M683.14,657.89q.9-3.89,2-7.85c.74-2.64,1.46-5.25,2.17-7.85q.43-1.62.78-2.94t.57-2.4c.16-.72.28-1.37.36-2a13.93,13.93,0,0,0,.11-1.63V633a3.63,3.63,0,0,0,0-.44,4.85,4.85,0,0,0-1,.26c-.54.17-1.17.4-1.9.68s-1.49.6-2.3.95-1.55.71-2.24,1.06c-.54.29-1,.52-1.37.71a8,8,0,0,1-.95.43,4,4,0,0,1-.72.21,3.82,3.82,0,0,1-.68.06,1.68,1.68,0,0,1-1.26-.56,2,2,0,0,1-.52-1.45,3.52,3.52,0,0,1,.1-.91,2.1,2.1,0,0,1,.33-.69,2.75,2.75,0,0,1,.6-.57,6.61,6.61,0,0,1,.91-.55,51.3,51.3,0,0,1,12-4.54,52.66,52.66,0,0,1,12.19-1.44l1.17,0,1.39.09c.48,0,.95.09,1.4.16a9.46,9.46,0,0,1,1.19.25,1.82,1.82,0,0,1,.94.68,1.74,1.74,0,0,1,.4,1.1,5.5,5.5,0,0,1-.08.91,2.13,2.13,0,0,1-.29.77,1.58,1.58,0,0,1-.56.53,1.62,1.62,0,0,1-.83.2l-1.93-.23a16.1,16.1,0,0,0-2.19-.14c-1.47,0-2.94,0-4.4.1a26.48,26.48,0,0,0-4.48.62c-.08,0-.13.12-.16.25s0,.3-.06.5a21,21,0,0,1-.21,2.23,18.61,18.61,0,0,1-.38,1.92c-.17.64-.37,1.33-.6,2.08s-.51,1.63-.82,2.67-.68,2.28-1.09,3.72-.87,3.2-1.37,5.24l-1.13,4.55c-.26,1-.47,2-.62,2.82s-.28,1.66-.39,2.48a1.34,1.34,0,0,1-.71.75,3,3,0,0,1-1.46.35,1.59,1.59,0,0,1-.9-.27,2.26,2.26,0,0,1-.65-.69,2.68,2.68,0,0,1-.35-.93A2.11,2.11,0,0,1,683.14,657.89Z"/><path d="M703.89,659.25c.2-1.09.43-2.29.7-3.61s.54-2.64.82-4,.55-2.66.82-4,.49-2.49.68-3.56a3.18,3.18,0,0,1,0-.41v-.39a11.76,11.76,0,0,1,.09-1.45,9.65,9.65,0,0,1,.26-1.34,3,3,0,0,1,.57-1.21,1.4,1.4,0,0,1,1-.31,2,2,0,0,1,1.09.27,1.93,1.93,0,0,1,.65.71,3.2,3.2,0,0,1,.3,1,9.12,9.12,0,0,1,.07,1.18c0,.22,0,.47,0,.73s0,.48,0,.63c.44-.45.91-.91,1.4-1.39a11.33,11.33,0,0,1,1.57-1.29,9.06,9.06,0,0,1,1.76-.95,5.06,5.06,0,0,1,1.93-.37,4,4,0,0,1,.78.07,8.1,8.1,0,0,1,.79.18,8.44,8.44,0,0,1,1,.32,4.36,4.36,0,0,1,1,.55,5.29,5.29,0,0,1,1.3,1.47,3.42,3.42,0,0,1,.52,1.79,2.2,2.2,0,0,1-.14.76,2.94,2.94,0,0,1-.38.75,2.2,2.2,0,0,1-.58.56,1.26,1.26,0,0,1-.72.23,3.21,3.21,0,0,1-1-.2,3,3,0,0,1-1-.53,2.07,2.07,0,0,1-.34-.4c-.11-.17-.22-.34-.32-.51l-.29-.48a2,2,0,0,0-.19-.3,2.06,2.06,0,0,0-.26,0h-.26a4.56,4.56,0,0,0-2.27.6,11.07,11.07,0,0,0-2,1.49,17,17,0,0,0-1.72,1.88c-.53.66-1,1.26-1.37,1.79-.32,1.27-.66,2.61-1.05,4s-.76,2.93-1.13,4.49v.59c0,.47,0,.94,0,1.43a3.94,3.94,0,0,1-.28,1.29,2,2,0,0,1-.74.59,2.33,2.33,0,0,1-1.11.25,1.74,1.74,0,0,1-1.48-.64,2.43,2.43,0,0,1-.49-1.52A3.07,3.07,0,0,1,703.89,659.25Z"/><path d="M723.71,672.5a1.17,1.17,0,0,1-.63-.19,1.72,1.72,0,0,1-.48-.49,3.18,3.18,0,0,1-.32-.67,2.58,2.58,0,0,1,0-1.49,2.19,2.19,0,0,1,.3-.57,1.39,1.39,0,0,1,.37-.39,2.42,2.42,0,0,1,.37-.21c.37-.1.81-.2,1.31-.31a13.63,13.63,0,0,0,1.63-.48,16,16,0,0,0,1.87-.82,11.75,11.75,0,0,0,2-1.32c.71-.55,1.44-1.18,2.22-1.91a19.09,19.09,0,0,0,2.24-2.56,22.48,22.48,0,0,0,2-3.35,21.39,21.39,0,0,0,1.55-4.32l-1,1.11c-.38.42-.79.84-1.23,1.27s-.89.84-1.36,1.24a16.56,16.56,0,0,1-1.41,1.08,7.88,7.88,0,0,1-1.37.76,3.16,3.16,0,0,1-1.25.28,4.83,4.83,0,0,1-2.67-.71,6.66,6.66,0,0,1-2-2.36,3.79,3.79,0,0,1-.4-1.22,7.75,7.75,0,0,1-.14-1.52c0-.85,0-1.67.11-2.46s.2-1.63.36-2.49.34-1.76.55-2.7.45-2,.71-3.13c0-.3,0-.58.07-.85s0-.43.06-.63a1.74,1.74,0,0,1,0-.38,1.79,1.79,0,0,1,.27-.75,2.33,2.33,0,0,1,.53-.6,2.38,2.38,0,0,1,.68-.4,1.88,1.88,0,0,1,.72-.14,5.33,5.33,0,0,1,1,.08,1.35,1.35,0,0,1,.78.36,2.69,2.69,0,0,1,.59,1.1,4.18,4.18,0,0,1,.2,1.22,3.39,3.39,0,0,1-.2.85,7,7,0,0,1-.57,1.31c-.37,1.4-.68,2.6-.91,3.57s-.42,1.79-.55,2.44-.23,1.16-.29,1.55a7.41,7.41,0,0,0-.08.88,4.11,4.11,0,0,0,.42,2,1.23,1.23,0,0,0,1,.75,2.87,2.87,0,0,0,.8-.14,3.94,3.94,0,0,0,1-.47,17.83,17.83,0,0,0,3.38-2.66,15.78,15.78,0,0,0,2.44-3.19,22.08,22.08,0,0,0,1.76-3.83q.74-2.08,1.35-4.59a.71.71,0,0,1,.22-.33,1.81,1.81,0,0,1,.42-.28,2.77,2.77,0,0,1,.53-.2,2.14,2.14,0,0,1,.54-.08,2.57,2.57,0,0,1,1.91.67,2.43,2.43,0,0,1,.67,1.79,6.6,6.6,0,0,1-.22,1.36c-.14.62-.3,1.28-.49,2s-.38,1.36-.57,2-.35,1.1-.46,1.4L743,651.61c-.52,1.47-1,2.82-1.4,4.06s-.85,2.38-1.32,3.46a25.46,25.46,0,0,1-1.58,3,19.13,19.13,0,0,1-2.13,2.79,24.77,24.77,0,0,1-2.95,2.73,44.17,44.17,0,0,1-4.08,2.85,20.32,20.32,0,0,1-2.84,1.42A8.09,8.09,0,0,1,723.71,672.5Z"/><path d="M759,650.32a3,3,0,0,0-1,.23,12,12,0,0,0-1.17.52c-.39.21-.77.42-1.13.64a9.39,9.39,0,0,1-.93.51l-2.14,8.44a1.12,1.12,0,0,1-.58.75,1.9,1.9,0,0,1-.87.26,2.26,2.26,0,0,1-1.72-.51,1.85,1.85,0,0,1-.46-1.32,4.34,4.34,0,0,1,.06-.71c0-.25.09-.5.15-.77l.09-.4q.15-.63.39-1.59c.16-.64.34-1.32.53-2l.57-2.15c.2-.73.38-1.4.55-2s.43-1.47.76-2.64.72-2.49,1.13-3.94.84-3,1.29-4.56.87-3.1,1.26-4.54.76-2.71,1.07-3.83.53-1.94.66-2.47a1.54,1.54,0,0,1,.65-.54,2.47,2.47,0,0,1,1.06-.21,3.81,3.81,0,0,1,.87.1,3,3,0,0,1,.8.33,1.82,1.82,0,0,1,.6.57,1.29,1.29,0,0,1,.24.78,2.5,2.5,0,0,1-.14.73c-.94,2.72-1.87,5.53-2.79,8.45s-1.76,5.86-2.51,8.84c.2-.12.58-.38,1.12-.77s1.16-.84,1.82-1.36,1.33-1,2-1.62,1.24-1.07,1.69-1.52l1-1,.91-1,.77-.82.51-.58a4.52,4.52,0,0,1,1-.85,2,2,0,0,1,1.07-.34,2.58,2.58,0,0,1,.94.16,3,3,0,0,1,.73.41,1.86,1.86,0,0,1,.46.56,1.31,1.31,0,0,1,.17.6,1.93,1.93,0,0,1-.17.75,5.5,5.5,0,0,1-.38.77,6.14,6.14,0,0,1-.48.7,4.46,4.46,0,0,1-.45.48l-1.43,1.23c-.53.44-1.08.9-1.66,1.36L764,645.86l-1.75,1.32a7.13,7.13,0,0,1,2.43,2.2,12.16,12.16,0,0,1,1.51,3A17.43,17.43,0,0,1,767,656a32,32,0,0,1,.21,3.61,3.91,3.91,0,0,1,0,.43,4.21,4.21,0,0,1-.09.55,7.08,7.08,0,0,1-.28.78,1.93,1.93,0,0,1-1.09,1,2.93,2.93,0,0,1-1,.14,2,2,0,0,1-.92-.19,1.87,1.87,0,0,1-.62-.49,2.11,2.11,0,0,1-.36-.68,2.45,2.45,0,0,1-.12-.75c0-.78,0-1.59-.07-2.42a20.73,20.73,0,0,0-.28-2.43,13.48,13.48,0,0,0-.58-2.21,6.13,6.13,0,0,0-.94-1.8,6,6,0,0,0-.79-.84,1.33,1.33,0,0,0-.88-.31Z"/><path d="M793.72,670.34c.31-1.27.59-2.43.83-3.48s.47-2.05.67-3,.4-1.83.58-2.69.36-1.74.53-2.63.37-1.8.57-2.75.41-2,.64-3.12l1.13-5.44c.18-.92.31-1.71.38-2.37a17.86,17.86,0,0,0,.11-1.84c0-.6,0-1.13.05-1.59a3.5,3.5,0,0,1,.25-1.17,1.59,1.59,0,0,1,.62-.73,2.3,2.3,0,0,1,1.14-.24,3.82,3.82,0,0,1,1.64.29,2.11,2.11,0,0,1,.87.76,2.59,2.59,0,0,1,.34,1.08c0,.41.06.83.06,1.27a9.57,9.57,0,0,1,1.86-1,16.05,16.05,0,0,1,2.22-.74,22.66,22.66,0,0,1,2.32-.46,15.72,15.72,0,0,1,2.2-.16,6.81,6.81,0,0,1,2.95.6,6.16,6.16,0,0,1,2.11,1.59,6.8,6.8,0,0,1,1.27,2.3,9,9,0,0,1-.1,5.73,11,11,0,0,1-1.4,2.67,14.58,14.58,0,0,1-2.08,2.31,21.53,21.53,0,0,1-2.55,2c-.92.59-1.86,1.13-2.84,1.63s-1.94.93-2.89,1.32a13.29,13.29,0,0,1-1.82.6,7,7,0,0,1-1.53.2A8.25,8.25,0,0,1,802,661a6.51,6.51,0,0,1-1.74-.71c-.32,1.06-.58,2.08-.79,3s-.38,1.83-.5,2.58c-.08.47-.17,1-.28,1.47s-.22,1-.33,1.52-.22.95-.32,1.39-.18.81-.24,1.12a.79.79,0,0,1-.34.47,2.63,2.63,0,0,1-.65.32,4,4,0,0,1-.76.19,4.6,4.6,0,0,1-.69.06c-1.16,0-1.74-.46-1.74-1.36A2.93,2.93,0,0,1,793.72,670.34ZM801,656.75l.75.11.77.14.65.13a2,2,0,0,0,.36.06,4.59,4.59,0,0,0,1-.12,9.14,9.14,0,0,0,1.11-.3c.36-.13.72-.26,1.06-.41s.65-.29.92-.43c.76-.39,1.58-.87,2.45-1.42a15.8,15.8,0,0,0,2.41-1.91,10,10,0,0,0,1.84-2.42,6.11,6.11,0,0,0,.73-2.95,4.33,4.33,0,0,0-.17-1.22,2.91,2.91,0,0,0-.49-1,2.22,2.22,0,0,0-.86-.67,3,3,0,0,0-1.25-.25,10.17,10.17,0,0,0-1.5.11,7.32,7.32,0,0,0-1.38.34,7.73,7.73,0,0,0-1.36.6,12.76,12.76,0,0,0-1.41.88,8.39,8.39,0,0,1-1.47.94,5.32,5.32,0,0,1-1.79.53Z"/><path d="M834.25,660.66a9.67,9.67,0,0,1,.16-1.63,14.11,14.11,0,0,0,.16-2.35c-.51.37-1.08.82-1.71,1.33s-1.27,1-1.94,1.48a14,14,0,0,1-2,1.18,4,4,0,0,1-3.2.27,3.49,3.49,0,0,1-1.07-.56,7,7,0,0,1-1.8-2,4.71,4.71,0,0,1-.55-2.3,7.57,7.57,0,0,1,.11-1.22c.07-.42.17-.9.31-1.45a20.61,20.61,0,0,1,3.06-6.85,20.85,20.85,0,0,1,5.38-5.38,6.7,6.7,0,0,1,2.49-1.12,12.82,12.82,0,0,1,2.46-.24,10.62,10.62,0,0,1,1.2.07c.45,0,.85.09,1.21.14s.65-.13.88-.17a5.43,5.43,0,0,1,.71,0,3.14,3.14,0,0,1,1.18.19,1.94,1.94,0,0,1,.75.5,2.09,2.09,0,0,1,.41.73,3,3,0,0,1,.13.85,3.71,3.71,0,0,1-.19,1.16l-.38,1.11-3.09,12.36c-.06.67-.12,1.29-.16,1.85a8.41,8.41,0,0,1-.29,1.57l-.17.53a2,2,0,0,1-.34.6,2.09,2.09,0,0,1-.59.51,1.75,1.75,0,0,1-.91.21,5.91,5.91,0,0,1-1.16-.09,2,2,0,0,1-.67-.27.74.74,0,0,1-.3-.43A1.93,1.93,0,0,1,834.25,660.66Zm-7.79-7.08c-.06.22-.13.53-.2.94a7.17,7.17,0,0,0-.1,1.22,3.17,3.17,0,0,0,.19,1.14.78.78,0,0,0,.82.5A4.15,4.15,0,0,0,829,657a8.83,8.83,0,0,0,1.6-1.05c.67-.54,1.36-1.16,2-1.84a26.56,26.56,0,0,0,2-2.14,18.41,18.41,0,0,0,1.64-2.31,9.4,9.4,0,0,0,1.05-2.36,12.46,12.46,0,0,0,.31-1.57,10.59,10.59,0,0,0,.13-1.59,1.46,1.46,0,0,0-.14-.6.54.54,0,0,0-.54-.29,6.61,6.61,0,0,0-2.31.44,10.8,10.8,0,0,0-2.24,1.2,14,14,0,0,0-2,1.77,18.52,18.52,0,0,0-1.77,2.18,17.31,17.31,0,0,0-1.37,2.39A15,15,0,0,0,826.46,653.58Zm6.12-20.9a9.22,9.22,0,0,1,.56-1.56,8.82,8.82,0,0,1,1-1.62,9.56,9.56,0,0,1,1.5-1.58,12,12,0,0,1,2.13-1.46l0,0a2.82,2.82,0,0,1,1.21-.53,8,8,0,0,1,1.37-.13,5.42,5.42,0,0,1,1.24.13,2.8,2.8,0,0,1,.91.4,2.46,2.46,0,0,1,.66.7,8.29,8.29,0,0,1,.57,1.05,3.94,3.94,0,0,1,.3,1.47,4.15,4.15,0,0,1-.07.79c0,.26-.11.53-.19.83a6.62,6.62,0,0,1-.57,1.53,10.14,10.14,0,0,1-.93,1.48,10.25,10.25,0,0,1-1.21,1.35,9.76,9.76,0,0,1-1.46,1.12,5.32,5.32,0,0,1-1.44.66,6.49,6.49,0,0,1-1.91.26,3.88,3.88,0,0,1-2.86-1,3.43,3.43,0,0,1-.94-2.5A6.89,6.89,0,0,1,832.58,632.68Zm3-.1a2.66,2.66,0,0,0-.07.39,2.56,2.56,0,0,0,0,.39,1.48,1.48,0,0,0,.32,1,1.33,1.33,0,0,0,1.07.37,2.46,2.46,0,0,0,1.3-.35,4.12,4.12,0,0,0,1-.86,5.43,5.43,0,0,0,.74-1.12,5.66,5.66,0,0,0,.41-1.11,4.21,4.21,0,0,0,.21-1.15.19.19,0,0,0,0-.08.19.19,0,0,1,0-.08v0a1.24,1.24,0,0,0-.37-.66,1.83,1.83,0,0,0-1.09-.21,2,2,0,0,0-.9.27,4.38,4.38,0,0,0-1,.75,7,7,0,0,0-.93,1.12A5.8,5.8,0,0,0,835.63,632.58Z"/><path d="M870.13,657.52a1.21,1.21,0,0,1,.34.05l.34.1a3.16,3.16,0,0,0,.42.11,3.44,3.44,0,0,0,.61,0,14.06,14.06,0,0,0,2.45-.23,20.53,20.53,0,0,0,2.54-.61,10.73,10.73,0,0,0,2-.85c.57-.33.9-.66,1-1a1.92,1.92,0,0,0,.07-.49,1,1,0,0,0-.38-.76,4.76,4.76,0,0,0-1-.7,13.59,13.59,0,0,0-1.27-.61l-1.27-.51-.79-.33a9.38,9.38,0,0,1-1.2-.57,7,7,0,0,1-1.09-.79,5.3,5.3,0,0,1-.89-1,4.31,4.31,0,0,1-.57-1.37,5.28,5.28,0,0,1-.16-.66,5.12,5.12,0,0,1-.05-.7,3,3,0,0,1,.41-1.4,7.84,7.84,0,0,1,1.1-1.56,13.08,13.08,0,0,1,1.57-1.47A9.51,9.51,0,0,1,876.2,641c.47-.33.92-.63,1.36-.89a9.2,9.2,0,0,1,1.32-.68,8.66,8.66,0,0,1,1.36-.45,6.31,6.31,0,0,1,1.47-.16c.46,0,1,0,1.52.07a5.32,5.32,0,0,1,1.5.32,3,3,0,0,1,1.14.77,1.92,1.92,0,0,1,.45,1.34,3.9,3.9,0,0,1-.07.68,3.7,3.7,0,0,1-.23.85,2.75,2.75,0,0,1-.4.72.68.68,0,0,1-.56.31,1.7,1.7,0,0,1-.89-.21,3.88,3.88,0,0,1-.64-.46,6.51,6.51,0,0,0-.58-.46,1.28,1.28,0,0,0-.75-.21,4.94,4.94,0,0,0-1.26.2,10.92,10.92,0,0,0-1.46.54,13.06,13.06,0,0,0-1.47.79,12,12,0,0,0-1.28.91,5.1,5.1,0,0,0-.93.93,1.42,1.42,0,0,0-.35.83.85.85,0,0,0,.26.65,2.27,2.27,0,0,0,.65.45c.35.19.74.37,1.19.56l1.34.56,1.33.57c.43.18.8.36,1.11.51s.8.44,1.14.65a4.26,4.26,0,0,1,.85.69,2.52,2.52,0,0,1,.54.84,2.88,2.88,0,0,1,.19,1.1,4.07,4.07,0,0,1,0,.61c0,.21-.08.44-.14.71a5.77,5.77,0,0,1-.24.82c-.12.31-.25.62-.38.92a7,7,0,0,1-.41.82,1.72,1.72,0,0,1-.35.48,12.85,12.85,0,0,1-2.16,1.59,18.33,18.33,0,0,1-2.59,1.28,18.75,18.75,0,0,1-2.69.88,10.45,10.45,0,0,1-2.47.33,4,4,0,0,1-1.25-.22,5.32,5.32,0,0,1-1.25-.59,4.11,4.11,0,0,1-1-.83,1.45,1.45,0,0,1-.39-.94,1.27,1.27,0,0,1,.14-.52,2.5,2.5,0,0,1,.35-.54,2.25,2.25,0,0,1,.46-.42A.79.79,0,0,1,870.13,657.52Z"/><path d="M889.65,652.69a17.76,17.76,0,0,1,1.09-3,19.25,19.25,0,0,1,1.93-3.25,23.43,23.43,0,0,1,2.88-3.21,24.36,24.36,0,0,1,3.87-2.93,6.77,6.77,0,0,1,1.08-.46,5.94,5.94,0,0,1,1.5-.29,3.18,3.18,0,0,1,2.46-1,5.05,5.05,0,0,1,3.09.92,7.24,7.24,0,0,1,2.07,2.52c.17.34.33.68.48,1a8,8,0,0,1,.38,1,9.83,9.83,0,0,1,.24,1.18,10.24,10.24,0,0,1,.1,1.43,12.93,12.93,0,0,1-.59,3.78,17.75,17.75,0,0,1-1.66,3.75,20.73,20.73,0,0,1-2.62,3.5,21.3,21.3,0,0,1-3.41,3,10,10,0,0,1-2.8,1.42,10.84,10.84,0,0,1-3.43.51,9.15,9.15,0,0,1-3.13-.48,5.86,5.86,0,0,1-2.2-1.38,5.56,5.56,0,0,1-1.32-2.13,8.32,8.32,0,0,1-.43-2.76A13.18,13.18,0,0,1,889.65,652.69Zm3.89.31a8.7,8.7,0,0,0-.2,1,7.34,7.34,0,0,0-.06.92,5.06,5.06,0,0,0,.2,1.44,2.9,2.9,0,0,0,.65,1.15,3,3,0,0,0,1.11.75,4.38,4.38,0,0,0,1.63.27,6.47,6.47,0,0,0,3.32-.9,11.34,11.34,0,0,0,2.73-2.26,15,15,0,0,0,2-2.92,13.53,13.53,0,0,0,1.14-2.87c.14-.55.26-1.06.36-1.55a6.62,6.62,0,0,0,.15-1.34,2.85,2.85,0,0,0-.22-1.13c-.15-.35-.34-.75-.57-1.19-.14-.26-.28-.54-.43-.83s-.26-.57-.37-.85a3.79,3.79,0,0,1-.4.57,1.89,1.89,0,0,1-.63.45,6.07,6.07,0,0,1-1.15.36,16.54,16.54,0,0,1-1.9.28,6.48,6.48,0,0,0-1.57.8,12.67,12.67,0,0,0-1.56,1.26,18.09,18.09,0,0,0-1.45,1.57,16.26,16.26,0,0,0-1.24,1.73,16.68,16.68,0,0,0-1,1.72A7.14,7.14,0,0,0,893.54,653Z"/><path d="M922,629.54a9.7,9.7,0,0,1,.37-1.74,4.32,4.32,0,0,1,.69-1.32,1.39,1.39,0,0,1,1.12-.53,2.94,2.94,0,0,1,.83.14,3.75,3.75,0,0,1,.87.39,2.63,2.63,0,0,1,.69.59,1.23,1.23,0,0,1,.28.78,1.47,1.47,0,0,1-.07.43q-.08.26-.12.48l-5.86,23.49c-.23.93-.43,1.83-.58,2.68s-.28,1.55-.35,2.1v.56a14.67,14.67,0,0,1-.1,1.54,6.67,6.67,0,0,1-.35,1.54,3.38,3.38,0,0,1-.71,1.2,1.57,1.57,0,0,1-1.19.48,2.16,2.16,0,0,1-1.1-.27,2.44,2.44,0,0,1-.77-.69,3,3,0,0,1-.45-.91,3.35,3.35,0,0,1-.14-.9,6.79,6.79,0,0,1,.07-.92c0-.37.11-.75.18-1.15s.14-.8.22-1.2.16-.74.23-1l6-24C921.81,630.74,921.87,630.16,922,629.54Z"/><path d="M926.57,652.62a2.79,2.79,0,0,1,.53-1.71,2.61,2.61,0,0,1,1.43-.94c.18-.34.44-.81.8-1.39a22.14,22.14,0,0,1,1.34-1.91,23.77,23.77,0,0,1,1.81-2.08,15.85,15.85,0,0,1,2.25-1.89,12.43,12.43,0,0,1,2.65-1.4,8.41,8.41,0,0,1,3-.54,7.62,7.62,0,0,1,2.37.33,4.56,4.56,0,0,1,1.66.91,3.73,3.73,0,0,1,1,1.4,4.57,4.57,0,0,1,.33,1.74,5.49,5.49,0,0,1-.21,1.53,5.3,5.3,0,0,1-1.22,2.29,9.6,9.6,0,0,1-2.1,1.73,13.51,13.51,0,0,1-2.63,1.23,28.37,28.37,0,0,1-5.56,1.32c-.88.12-1.63.21-2.27.27a4.43,4.43,0,0,0-.37,1.07,5.53,5.53,0,0,0-.15,1.25,2.42,2.42,0,0,0,1.08,2.11,5.14,5.14,0,0,0,3,.75,9,9,0,0,0,2.11-.24,12.23,12.23,0,0,0,1.91-.64A16.82,16.82,0,0,0,941,657c.53-.31,1-.61,1.46-.9a14.85,14.85,0,0,1,1.6-1,3.05,3.05,0,0,1,1.35-.39c.39,0,.64.1.75.29a1.27,1.27,0,0,1,.16.62c0,.13,0,.25,0,.37s0,.21,0,.29a4.09,4.09,0,0,1-.47,1.22,3.77,3.77,0,0,1-.89,1.05,16,16,0,0,1-5,2.75,18,18,0,0,1-5.47.82c-.37,0-.82,0-1.32-.07a10.64,10.64,0,0,1-1.59-.28,9.3,9.3,0,0,1-1.61-.61,5,5,0,0,1-2.43-2.68,6.15,6.15,0,0,1-.39-2.32,11.64,11.64,0,0,1,.31-2.46,1,1,0,0,1-.58-.31A1.12,1.12,0,0,1,926.57,652.62Zm14.67-6.49a.59.59,0,0,0,0-.21v-.21a1.07,1.07,0,0,0-.46-1,2,2,0,0,0-1.13-.32,4.23,4.23,0,0,0-2,.54,9.23,9.23,0,0,0-1.87,1.35,12,12,0,0,0-1.56,1.73,12.46,12.46,0,0,0-1.06,1.68,23.94,23.94,0,0,0,3.1-.46,12.36,12.36,0,0,0,2.45-.8,6.73,6.73,0,0,0,1.69-1.07A2.91,2.91,0,0,0,941.24,646.13Z"/><path d="M967.25,642.43a4.54,4.54,0,0,0-1.75.38,11.73,11.73,0,0,0-2,1.05,24.9,24.9,0,0,0-2,1.48c-.7.56-1.38,1.13-2,1.73-.35.29-.67.56-1,.81a4.12,4.12,0,0,1-.93.55,11.54,11.54,0,0,0-.7,1.41c-.24.59-.48,1.23-.71,1.93s-.46,1.4-.67,2.13-.38,1.4-.53,2c-.07.32-.14.64-.18,1s-.1.64-.17,1-.13.73-.22,1.14-.19.86-.32,1.36a1.5,1.5,0,0,1-.37.71,1.84,1.84,0,0,1-.54.41,1.56,1.56,0,0,1-.54.18l-.4,0a2.35,2.35,0,0,1-1.45-.42,1.94,1.94,0,0,1-.56-1.64c0-.22,0-.45,0-.69a4.6,4.6,0,0,1,.14-.81c.34-1.48.68-2.82,1-4s.64-2.28,1-3.3.66-2,1-2.87.68-1.81,1-2.72l1.1-2.84q.57-1.45,1.23-3.24a1.24,1.24,0,0,1,.74-.67,3,3,0,0,1,1.27-.27,2.48,2.48,0,0,1,1.47.4,1.31,1.31,0,0,1,.57,1.15,1.35,1.35,0,0,1,0,.26,2.66,2.66,0,0,1-.14.39l-1,2.44c.65-.51,1.33-1,2-1.55a21.2,21.2,0,0,1,2.19-1.39,14.51,14.51,0,0,1,2.26-1,6.85,6.85,0,0,1,2.24-.38,4.88,4.88,0,0,1,3.51,1.2,4.93,4.93,0,0,1,1.27,3.74,12.67,12.67,0,0,1-.51,3.31c-.33,1.23-.75,2.55-1.26,4s-1.06,2.9-1.64,4.45-1.13,3.14-1.63,4.75a9.77,9.77,0,0,1-.43,1.1,2.35,2.35,0,0,1-.53.71,1.8,1.8,0,0,1-.72.39,3.53,3.53,0,0,1-1,.12,1.88,1.88,0,0,1-1.27-.34,1.49,1.49,0,0,1-.35-1.09,8.34,8.34,0,0,1,.2-1.61,20.58,20.58,0,0,1,.56-2.08c.24-.76.53-1.57.85-2.43s.66-1.73,1-2.62c.3-.72.59-1.44.88-2.16s.54-1.41.77-2.09a19,19,0,0,0,.55-1.92,7.57,7.57,0,0,0,.21-1.69,2.49,2.49,0,0,0-.31-1.27A1.25,1.25,0,0,0,967.25,642.43Z"/><path d="M1005,663.82a2.33,2.33,0,0,1-1-.22,2.29,2.29,0,0,1-.77-.61,2.81,2.81,0,0,1-.49-.88,3,3,0,0,1-.18-1.05,4.78,4.78,0,0,1,.09-.88c.07-.32.16-.71.28-1.16l.22-.91c.09-.41.18-.87.28-1.39s.19-1.06.29-1.64.19-1.14.28-1.69.15-1,.2-1.52a11.23,11.23,0,0,0,.07-1.17,2.94,2.94,0,0,0,0-.4q0-.34-.51-.48l-1-.28a2.91,2.91,0,0,1-1-.49,1.34,1.34,0,0,1-.44-1.12,2.47,2.47,0,0,1,.3-1.19,1.74,1.74,0,0,1,.76-.8,3.12,3.12,0,0,1,1.21-.28,9.85,9.85,0,0,0,1.32-.14.63.63,0,0,0,.53-.45,6.16,6.16,0,0,0,.24-.77c.19-.72.39-1.5.61-2.33s.48-1.69.76-2.56.61-1.71,1-2.54a16.54,16.54,0,0,1,1.18-2.3,26.54,26.54,0,0,1,2.26-2.67,16.4,16.4,0,0,1,2.58-2.17,12.36,12.36,0,0,1,2.91-1.45,10,10,0,0,1,3.26-.53,7.12,7.12,0,0,1,3.4.71,5.42,5.42,0,0,1,2.14,2.11,2.23,2.23,0,0,1,.25.66,3.26,3.26,0,0,1,.07.7,3.78,3.78,0,0,1-.17,1.18,3.32,3.32,0,0,1-.48,1,2.3,2.3,0,0,1-.72.64,1.66,1.66,0,0,1-.85.24,1.69,1.69,0,0,1-1-.26,2.15,2.15,0,0,1-.57-.63,3.24,3.24,0,0,1-.35-.83c-.09-.31-.18-.59-.28-.84a2,2,0,0,0-.41-.63,1,1,0,0,0-.73-.26,5.55,5.55,0,0,0-1.07.12,4.11,4.11,0,0,0-1.13.4,18.09,18.09,0,0,0-2.65,1.68,11,11,0,0,0-2.26,2.35,17.7,17.7,0,0,0-1.93,3.49,35,35,0,0,0-1.62,5.09.33.33,0,0,0-.05.12.18.18,0,0,0,0,.09s.06,0,.18,0a9.77,9.77,0,0,0,1.35-.09c.43,0,.86-.11,1.28-.18s.85-.14,1.27-.19a11.93,11.93,0,0,1,1.38-.08c.36,0,.69,0,1,0a2.82,2.82,0,0,1,.81.2,1.31,1.31,0,0,1,.54.44,1.26,1.26,0,0,1,.2.75,4.06,4.06,0,0,1-.08.69,3.93,3.93,0,0,1-.26.8,3.11,3.11,0,0,1-.44.69,1.13,1.13,0,0,1-.67.37,13.49,13.49,0,0,1-1.46.22l-1.64.19c-.59.07-1.25.17-2,.31s-1.53.32-2.42.57a25.88,25.88,0,0,0-.64,3.15c-.15,1-.28,2.08-.39,3.11s-.23,2.07-.36,3.1a31.25,31.25,0,0,1-.58,3.13,2.09,2.09,0,0,1-.24.61,2.33,2.33,0,0,1-.43.55,1.85,1.85,0,0,1-.56.4A1.53,1.53,0,0,1,1005,663.82Z"/><path d="M1019.8,652.69a16.94,16.94,0,0,1,1.09-3,19.25,19.25,0,0,1,1.93-3.25,24,24,0,0,1,2.87-3.21,24.46,24.46,0,0,1,3.88-2.93,6.77,6.77,0,0,1,1.08-.46,5.94,5.94,0,0,1,1.5-.29,3.18,3.18,0,0,1,2.46-1,5,5,0,0,1,3.08.92,7.15,7.15,0,0,1,2.08,2.52c.17.34.33.68.48,1a6.72,6.72,0,0,1,.37,1,8.19,8.19,0,0,1,.25,1.18,10.33,10.33,0,0,1,.09,1.43,12.91,12.91,0,0,1-.58,3.78,17.29,17.29,0,0,1-1.67,3.75,20.66,20.66,0,0,1-2.61,3.5,21.3,21.3,0,0,1-3.41,3,10,10,0,0,1-2.8,1.42,10.84,10.84,0,0,1-3.43.51,9.15,9.15,0,0,1-3.13-.48,5.9,5.9,0,0,1-2.21-1.38,5.66,5.66,0,0,1-1.31-2.13,8.32,8.32,0,0,1-.43-2.76A13.18,13.18,0,0,1,1019.8,652.69Zm3.89.31a8.7,8.7,0,0,0-.2,1,7.34,7.34,0,0,0-.06.92,5.06,5.06,0,0,0,.2,1.44,2.78,2.78,0,0,0,.65,1.15,3,3,0,0,0,1.11.75,4.34,4.34,0,0,0,1.63.27,6.41,6.41,0,0,0,3.31-.9,11.2,11.2,0,0,0,2.74-2.26,15,15,0,0,0,2-2.92,13.53,13.53,0,0,0,1.14-2.87c.14-.55.26-1.06.36-1.55a6.62,6.62,0,0,0,.15-1.34,2.85,2.85,0,0,0-.22-1.13c-.15-.35-.34-.75-.58-1.19-.14-.26-.28-.54-.42-.83s-.26-.57-.37-.85a3.79,3.79,0,0,1-.4.57,1.89,1.89,0,0,1-.63.45,6.07,6.07,0,0,1-1.15.36,16.89,16.89,0,0,1-1.9.28,6.3,6.3,0,0,0-1.57.8,12.67,12.67,0,0,0-1.56,1.26,18.09,18.09,0,0,0-1.45,1.57,16.26,16.26,0,0,0-1.24,1.73,19,19,0,0,0-1,1.72A7.62,7.62,0,0,0,1023.69,653Z"/><path d="M1045.42,659.25c.2-1.09.43-2.29.7-3.61s.54-2.64.82-4,.56-2.66.82-4,.49-2.49.68-3.56a3.18,3.18,0,0,1,0-.41v-.39a11.76,11.76,0,0,1,.09-1.45,9.65,9.65,0,0,1,.26-1.34,3,3,0,0,1,.57-1.21,1.4,1.4,0,0,1,1-.31,1.93,1.93,0,0,1,1.09.27,1.85,1.85,0,0,1,.65.71,3.2,3.2,0,0,1,.3,1,9.12,9.12,0,0,1,.07,1.18c0,.22,0,.47,0,.73s0,.48,0,.63c.44-.45.91-.91,1.4-1.39a11.33,11.33,0,0,1,1.57-1.29,9.06,9.06,0,0,1,1.76-.95,5.06,5.06,0,0,1,1.93-.37,4.15,4.15,0,0,1,.79.07,7.92,7.92,0,0,1,.78.18,8.44,8.44,0,0,1,1,.32,4.36,4.36,0,0,1,1,.55,5.13,5.13,0,0,1,1.3,1.47,3.42,3.42,0,0,1,.52,1.79,2.2,2.2,0,0,1-.14.76,2.94,2.94,0,0,1-.38.75,2.2,2.2,0,0,1-.58.56,1.26,1.26,0,0,1-.72.23,3.21,3.21,0,0,1-1-.2,3,3,0,0,1-.95-.53,2.49,2.49,0,0,1-.34-.4c-.11-.17-.22-.34-.32-.51l-.28-.48a3,3,0,0,0-.2-.3,2.06,2.06,0,0,0-.26,0H1059a4.59,4.59,0,0,0-2.27.6,11.07,11.07,0,0,0-2,1.49,17,17,0,0,0-1.72,1.88c-.52.66-1,1.26-1.37,1.79-.31,1.27-.66,2.61-1.05,4s-.76,2.93-1.13,4.49v.59c0,.47,0,.94,0,1.43a3.94,3.94,0,0,1-.28,1.29,2,2,0,0,1-.74.59,2.33,2.33,0,0,1-1.11.25,1.74,1.74,0,0,1-1.48-.64,2.43,2.43,0,0,1-.49-1.52A3.07,3.07,0,0,1,1045.42,659.25Z"/><path d="M1100.21,660.66a9.81,9.81,0,0,1,.17-1.63,14.11,14.11,0,0,0,.16-2.35c-.51.37-1.08.82-1.71,1.33s-1.27,1-1.94,1.48a14.58,14.58,0,0,1-2,1.18,4.28,4.28,0,0,1-1.86.48,4.23,4.23,0,0,1-1.34-.21,3.67,3.67,0,0,1-1.08-.56,7.1,7.1,0,0,1-1.79-2,4.61,4.61,0,0,1-.55-2.3,7.57,7.57,0,0,1,.11-1.22c.07-.42.17-.9.31-1.45a20.61,20.61,0,0,1,3.06-6.85,20.85,20.85,0,0,1,5.38-5.38,6.73,6.73,0,0,1,2.48-1.12,13,13,0,0,1,2.47-.24,10.75,10.75,0,0,1,1.2.07c.45,0,.85.09,1.21.14s.65-.13.88-.17a5.33,5.33,0,0,1,.71,0,3.14,3.14,0,0,1,1.18.19,1.94,1.94,0,0,1,.75.5,2.09,2.09,0,0,1,.41.73,3,3,0,0,1,.12.85,3.71,3.71,0,0,1-.18,1.16l-.38,1.11-3.09,12.36c-.06.67-.12,1.29-.17,1.85a7.67,7.67,0,0,1-.28,1.57l-.17.53a2,2,0,0,1-.34.6,2.09,2.09,0,0,1-.59.51,1.75,1.75,0,0,1-.91.21,5.91,5.91,0,0,1-1.16-.09,2,2,0,0,1-.67-.27.81.81,0,0,1-.31-.43A2.34,2.34,0,0,1,1100.21,660.66Zm-7.78-7.08c-.06.22-.13.53-.2.94a7.17,7.17,0,0,0-.1,1.22,3.17,3.17,0,0,0,.19,1.14.77.77,0,0,0,.82.5A4.15,4.15,0,0,0,1095,657a8.83,8.83,0,0,0,1.6-1.05c.67-.54,1.36-1.16,2.05-1.84a26.56,26.56,0,0,0,2-2.14,19.51,19.51,0,0,0,1.64-2.31,9,9,0,0,0,1-2.36,12.34,12.34,0,0,0,.32-1.57,10.59,10.59,0,0,0,.13-1.59,1.46,1.46,0,0,0-.14-.6.54.54,0,0,0-.54-.29,6.52,6.52,0,0,0-2.31.44,10.8,10.8,0,0,0-2.24,1.2,13.47,13.47,0,0,0-2,1.77,17.56,17.56,0,0,0-1.77,2.18,16.35,16.35,0,0,0-1.37,2.39A15,15,0,0,0,1092.43,653.58Z"/><path d="M1115.45,654.38a20.36,20.36,0,0,1,.44-4.09c.3-1.41.61-2.77.94-4.07a6,6,0,0,1-1.24-.18,4.92,4.92,0,0,1-1.15-.45,2.88,2.88,0,0,1-.84-.69,1.46,1.46,0,0,1-.33-.95,2.15,2.15,0,0,1,.09-.54,2.73,2.73,0,0,1,.27-.64,1.72,1.72,0,0,1,.46-.54,1,1,0,0,1,.63-.23h3.14a.6.6,0,0,0,.61-.38,4.89,4.89,0,0,0,.26-.76c.2-.91.39-1.7.57-2.36s.34-1.23.46-1.69.22-.83.29-1.12a3.19,3.19,0,0,0,.11-.69c0-.21,0-.4,0-.59s0-.45,0-.77v-.24a3.39,3.39,0,0,1,0-.49,5,5,0,0,1,.22-.87,2.17,2.17,0,0,1,.52-.84,1.41,1.41,0,0,1,1.1-.4,2.16,2.16,0,0,1,1.08.26,2.23,2.23,0,0,1,.72.68,3,3,0,0,1,.42,1,4,4,0,0,1,.14,1.08,4.23,4.23,0,0,1-.11,1.05l-1.71,6.56,2.25-.39,2-.38c.71-.14,1.33-.27,1.86-.4l1.35-.31,1-.21a2.86,2.86,0,0,1,.64-.09,5,5,0,0,1,.76.06,2.48,2.48,0,0,1,.68.2,1.18,1.18,0,0,1,.48.4,1.1,1.1,0,0,1,.19.68,2.3,2.3,0,0,1-.22,1,2.8,2.8,0,0,1-.58.75,3,3,0,0,1-.79.51,4.48,4.48,0,0,1-.9.29l-1,.21-1.31.31-1.49.35-1.5.38-1.84.46c-.51.13-.94.22-1.3.29l-.88.14a4.16,4.16,0,0,1-.55,0c-.3.89-.55,1.77-.77,2.63s-.4,1.66-.55,2.4-.26,1.41-.33,2a12.79,12.79,0,0,0-.11,1.37,5.84,5.84,0,0,0,.12,1.21,2.8,2.8,0,0,0,.4,1,2.06,2.06,0,0,0,.76.67,2.69,2.69,0,0,0,1.21.24,4.92,4.92,0,0,0,2.44-.68,12,12,0,0,0,2.28-1.72,21.62,21.62,0,0,0,2.06-2.29c.65-.82,1.25-1.61,1.8-2.36a.84.84,0,0,1,.72-.43,1.55,1.55,0,0,1,.34,0,1.32,1.32,0,0,1,.39.17,1.14,1.14,0,0,1,.32.3.82.82,0,0,1,.12.45,1.1,1.1,0,0,1,0,.28,13.35,13.35,0,0,1-1.16,2.92c-.52,1-1.06,2-1.6,2.94a5.16,5.16,0,0,1-.74,1,11.3,11.3,0,0,1-1,.95,13.42,13.42,0,0,1-1.12.87c-.39.27-.76.52-1.11.74a5.76,5.76,0,0,1-1.94.77,10.39,10.39,0,0,1-2,.21,6.31,6.31,0,0,1-2.71-.55,5.6,5.6,0,0,1-2-1.5,6.54,6.54,0,0,1-1.23-2.21A8.61,8.61,0,0,1,1115.45,654.38Z"/><path d="M1161.43,657.52a1.16,1.16,0,0,1,.34.05l.34.1.42.11a3.44,3.44,0,0,0,.61,0,14,14,0,0,0,2.45-.23,20.69,20.69,0,0,0,2.55-.61,11,11,0,0,0,2-.85c.57-.33.89-.66,1-1a1.92,1.92,0,0,0,.07-.49,1,1,0,0,0-.39-.76,4.76,4.76,0,0,0-1-.7,11.54,11.54,0,0,0-1.27-.61l-1.26-.51-.8-.33a9.94,9.94,0,0,1-1.19-.57,6.59,6.59,0,0,1-1.09-.79,4.71,4.71,0,0,1-.89-1,4.56,4.56,0,0,1-.58-1.37q-.09-.33-.15-.66a3.88,3.88,0,0,1-.06-.7,3.16,3.16,0,0,1,.41-1.4,7.84,7.84,0,0,1,1.1-1.56,13.88,13.88,0,0,1,1.57-1.47,9.82,9.82,0,0,1,1.84-1.17c.47-.33.92-.63,1.36-.89a8.8,8.8,0,0,1,1.33-.68,8,8,0,0,1,1.36-.45,6.28,6.28,0,0,1,1.46-.16c.47,0,1,0,1.52.07a5.32,5.32,0,0,1,1.5.32,2.88,2.88,0,0,1,1.14.77,1.88,1.88,0,0,1,.46,1.34,5.21,5.21,0,0,1-.07.68,4.31,4.31,0,0,1-.24.85,2.75,2.75,0,0,1-.4.72.67.67,0,0,1-.56.31,1.72,1.72,0,0,1-.89-.21,4.25,4.25,0,0,1-.63-.46,6.65,6.65,0,0,0-.59-.46,1.28,1.28,0,0,0-.75-.21,4.87,4.87,0,0,0-1.25.2,10.55,10.55,0,0,0-1.47.54,12.94,12.94,0,0,0-1.46.79,11.23,11.23,0,0,0-1.29.91,5.82,5.82,0,0,0-.93.93,1.42,1.42,0,0,0-.35.83.89.89,0,0,0,.26.65,2.19,2.19,0,0,0,.66.45c.34.19.74.37,1.18.56l1.35.56,1.32.57c.43.18.8.36,1.12.51s.8.44,1.13.65a4.33,4.33,0,0,1,.86.69,2.87,2.87,0,0,1,.54.84,3.09,3.09,0,0,1,.18,1.1,4.08,4.08,0,0,1,0,.61c0,.21-.08.44-.14.71a6,6,0,0,1-.25.82c-.12.31-.24.62-.37.92a8.93,8.93,0,0,1-.41.82,1.52,1.52,0,0,1-.36.48,12.76,12.76,0,0,1-2.15,1.59,19.92,19.92,0,0,1-5.29,2.16,10.45,10.45,0,0,1-2.47.33,4,4,0,0,1-1.24-.22,5.39,5.39,0,0,1-1.26-.59,4.11,4.11,0,0,1-1-.83,1.49,1.49,0,0,1-.38-.94,1.13,1.13,0,0,1,.14-.52,2.18,2.18,0,0,1,.35-.54,2,2,0,0,1,.46-.42A.77.77,0,0,1,1161.43,657.52Z"/><path d="M1184.07,654.38a19.69,19.69,0,0,1,.45-4.09c.3-1.41.61-2.77.94-4.07a6.18,6.18,0,0,1-1.25-.18,4.84,4.84,0,0,1-1.14-.45,2.8,2.8,0,0,1-.85-.69,1.46,1.46,0,0,1-.33-.95,1.83,1.83,0,0,1,.1-.54,2.73,2.73,0,0,1,.27-.64,1.69,1.69,0,0,1,.45-.54,1,1,0,0,1,.64-.23h3.14a.6.6,0,0,0,.61-.38,4.81,4.81,0,0,0,.25-.76c.21-.91.4-1.7.58-2.36s.33-1.23.46-1.69.22-.83.29-1.12a3.06,3.06,0,0,0,.1-.69,5.62,5.62,0,0,0,0-.59c0-.19,0-.45,0-.77v-.24c0-.12,0-.29,0-.49a5.19,5.19,0,0,1,.23-.87,2.14,2.14,0,0,1,.51-.84,1.43,1.43,0,0,1,1.1-.4,2.08,2.08,0,0,1,1.81.94,3.22,3.22,0,0,1,.42,1,4.45,4.45,0,0,1,.14,1.08,4.21,4.21,0,0,1-.12,1.05l-1.71,6.56,2.25-.39,2-.38c.72-.14,1.34-.27,1.86-.4l1.35-.31,1-.21a2.94,2.94,0,0,1,.64-.09,5.09,5.09,0,0,1,.77.06,2.71,2.71,0,0,1,.68.2,1.32,1.32,0,0,1,.48.4,1.16,1.16,0,0,1,.18.68,2.16,2.16,0,0,1-.22,1,3,3,0,0,1-.57.75,3,3,0,0,1-.8.51,4.4,4.4,0,0,1-.89.29l-1,.21-1.32.31-1.48.35-1.5.38-1.84.46c-.51.13-.94.22-1.3.29l-.88.14a4.27,4.27,0,0,1-.55,0c-.3.89-.56,1.77-.78,2.63s-.4,1.66-.55,2.4-.26,1.41-.33,2a12.27,12.27,0,0,0-.1,1.37,5.84,5.84,0,0,0,.12,1.21,2.79,2.79,0,0,0,.39,1,2.09,2.09,0,0,0,.77.67,2.67,2.67,0,0,0,1.2.24,4.92,4.92,0,0,0,2.44-.68,11.73,11.73,0,0,0,2.29-1.72,22.78,22.78,0,0,0,2.06-2.29c.65-.82,1.24-1.61,1.79-2.36a.86.86,0,0,1,.73-.43,1.74,1.74,0,0,1,.34,0,1.17,1.17,0,0,1,.38.17,1,1,0,0,1,.32.3.75.75,0,0,1,.13.45,1.91,1.91,0,0,1,0,.28,13.35,13.35,0,0,1-1.16,2.92c-.53,1-1.06,2-1.61,2.94a4.78,4.78,0,0,1-.74,1,9.94,9.94,0,0,1-1,.95,13.57,13.57,0,0,1-1.13.87l-1.1.74a5.73,5.73,0,0,1-2,.77,10.39,10.39,0,0,1-2,.21,6.29,6.29,0,0,1-2.7-.55,5.52,5.52,0,0,1-2-1.5,6.54,6.54,0,0,1-1.23-2.21A8.34,8.34,0,0,1,1184.07,654.38Z"/><path d="M1217.45,660.66a9.67,9.67,0,0,1,.16-1.63,14,14,0,0,0,.17-2.35c-.52.37-1.09.82-1.71,1.33s-1.28,1-2,1.48a14.5,14.5,0,0,1-2,1.18,4.36,4.36,0,0,1-1.87.48,4.16,4.16,0,0,1-1.33-.21,3.67,3.67,0,0,1-1.08-.56,6.8,6.8,0,0,1-1.79-2,4.61,4.61,0,0,1-.55-2.3,7.52,7.52,0,0,1,.1-1.22c.07-.42.18-.9.32-1.45a20.22,20.22,0,0,1,3.06-6.85,20.65,20.65,0,0,1,5.37-5.38,6.7,6.7,0,0,1,2.49-1.12,13,13,0,0,1,2.46-.24,10.92,10.92,0,0,1,1.21.07c.44,0,.84.09,1.2.14s.66-.13.88-.17a5.58,5.58,0,0,1,.72,0,3,3,0,0,1,1.17.19,1.86,1.86,0,0,1,1.16,1.23,2.65,2.65,0,0,1,.13.85,3.44,3.44,0,0,1-.19,1.16c-.12.37-.25.74-.37,1.11l-3.1,12.36c-.06.67-.11,1.29-.16,1.85a8.42,8.42,0,0,1-.28,1.57l-.18.53a1.81,1.81,0,0,1-.34.6,2,2,0,0,1-.58.51,1.79,1.79,0,0,1-.92.21,6,6,0,0,1-1.16-.09,2,2,0,0,1-.67-.27.85.85,0,0,1-.3-.43A1.93,1.93,0,0,1,1217.45,660.66Zm-7.78-7.08a7.63,7.63,0,0,0-.2.94,7.19,7.19,0,0,0-.11,1.22,3.17,3.17,0,0,0,.19,1.14.78.78,0,0,0,.82.5,4.11,4.11,0,0,0,1.84-.43,8.9,8.9,0,0,0,1.61-1.05c.67-.54,1.35-1.16,2-1.84a26.43,26.43,0,0,0,2-2.14,19.61,19.61,0,0,0,1.65-2.31,9.73,9.73,0,0,0,1-2.36,12.46,12.46,0,0,0,.31-1.57,10.59,10.59,0,0,0,.13-1.59,1.32,1.32,0,0,0-.14-.6.54.54,0,0,0-.54-.29,6.51,6.51,0,0,0-2.3.44,10.56,10.56,0,0,0-2.24,1.2,13,13,0,0,0-2,1.77,17.56,17.56,0,0,0-1.77,2.18,16.35,16.35,0,0,0-1.37,2.39A13.25,13.25,0,0,0,1209.67,653.58Z"/><path d="M1229.8,659.25c.2-1.09.44-2.29.7-3.61s.54-2.64.82-4,.56-2.66.82-4,.5-2.49.68-3.56c0-.16,0-.3,0-.41v-.39a11.76,11.76,0,0,1,.09-1.45,11.39,11.39,0,0,1,.26-1.34,2.82,2.82,0,0,1,.58-1.21,1.4,1.4,0,0,1,1-.31,1.92,1.92,0,0,1,1.08.27,1.85,1.85,0,0,1,.65.71,2.76,2.76,0,0,1,.3,1,9.12,9.12,0,0,1,.07,1.18c0,.22,0,.47,0,.73s0,.48,0,.63l1.39-1.39a12,12,0,0,1,1.57-1.29,9.36,9.36,0,0,1,1.76-.95,5.1,5.1,0,0,1,1.93-.37,4.15,4.15,0,0,1,.79.07,7.31,7.31,0,0,1,.78.18,8.58,8.58,0,0,1,1,.32,4.3,4.3,0,0,1,1,.55,5,5,0,0,1,1.3,1.47,3.44,3.44,0,0,1,.53,1.79,2.46,2.46,0,0,1-.14.76,3.34,3.34,0,0,1-.39.75,2.16,2.16,0,0,1-.57.56,1.26,1.26,0,0,1-.73.23,3.1,3.1,0,0,1-1-.2,2.87,2.87,0,0,1-1-.53,1.77,1.77,0,0,1-.34-.4q-.18-.25-.33-.51l-.28-.48a.37.37,0,0,0-.46-.33h-.26a4.62,4.62,0,0,0-2.27.6,11.07,11.07,0,0,0-2,1.49,18,18,0,0,0-1.72,1.88c-.52.66-1,1.26-1.37,1.79-.31,1.27-.66,2.61-1,4s-.76,2.93-1.14,4.49v.59c0,.47,0,.94,0,1.43a3.94,3.94,0,0,1-.28,1.29,2,2,0,0,1-.74.59,2.33,2.33,0,0,1-1.11.25,1.75,1.75,0,0,1-1.48-.64,2.49,2.49,0,0,1-.49-1.52A3.07,3.07,0,0,1,1229.8,659.25Z"/><path d="M1253.12,654.38a19.69,19.69,0,0,1,.45-4.09c.29-1.41.6-2.77.93-4.07a6.09,6.09,0,0,1-1.24-.18,5.1,5.1,0,0,1-1.15-.45,2.88,2.88,0,0,1-.84-.69,1.46,1.46,0,0,1-.33-.95,2.15,2.15,0,0,1,.09-.54,4,4,0,0,1,.27-.64,1.72,1.72,0,0,1,.46-.54,1,1,0,0,1,.63-.23h3.14a.6.6,0,0,0,.61-.38,4.89,4.89,0,0,0,.26-.76c.2-.91.4-1.7.58-2.36s.33-1.23.45-1.69.23-.83.3-1.12a3.06,3.06,0,0,0,.1-.69c0-.21,0-.4,0-.59s0-.45,0-.77v-.24c0-.12,0-.29,0-.49a5,5,0,0,1,.22-.87,2.29,2.29,0,0,1,.52-.84,1.41,1.41,0,0,1,1.1-.4,2.16,2.16,0,0,1,1.08.26,2.13,2.13,0,0,1,.72.68,3.23,3.23,0,0,1,.43,1,4.45,4.45,0,0,1,.14,1.08,4.21,4.21,0,0,1-.12,1.05l-1.71,6.56,2.25-.39,2-.38c.72-.14,1.34-.27,1.86-.4l1.35-.31.95-.21a2.86,2.86,0,0,1,.64-.09,4.87,4.87,0,0,1,.76.06,2.48,2.48,0,0,1,.68.2,1.18,1.18,0,0,1,.48.4,1.1,1.1,0,0,1,.19.68,2.16,2.16,0,0,1-.22,1,2.8,2.8,0,0,1-.58.75,3,3,0,0,1-.79.51,4.61,4.61,0,0,1-.89.29l-1,.21-1.31.31-1.49.35-1.5.38-1.84.46c-.5.13-.94.22-1.3.29l-.88.14a4.16,4.16,0,0,1-.55,0c-.29.89-.55,1.77-.77,2.63s-.4,1.66-.55,2.4-.26,1.41-.33,2a12.27,12.27,0,0,0-.1,1.37,5.86,5.86,0,0,0,.11,1.21,2.8,2.8,0,0,0,.4,1,2.06,2.06,0,0,0,.76.67,2.72,2.72,0,0,0,1.21.24,4.92,4.92,0,0,0,2.44-.68,11.67,11.67,0,0,0,2.28-1.72,20.58,20.58,0,0,0,2.06-2.29c.65-.82,1.25-1.61,1.8-2.36a.86.86,0,0,1,.72-.43,1.55,1.55,0,0,1,.34,0,1.13,1.13,0,0,1,.39.17,1,1,0,0,1,.32.3.82.82,0,0,1,.13.45,1,1,0,0,1,0,.28,12.87,12.87,0,0,1-1.16,2.92c-.52,1-1.06,2-1.6,2.94a5.16,5.16,0,0,1-.74,1,11.3,11.3,0,0,1-1,.95,13.42,13.42,0,0,1-1.12.87l-1.1.74a5.89,5.89,0,0,1-2,.77,10.39,10.39,0,0,1-2,.21,6.34,6.34,0,0,1-2.71-.55,5.69,5.69,0,0,1-2-1.5,6.54,6.54,0,0,1-1.23-2.21A8.61,8.61,0,0,1,1253.12,654.38Z"/><path d="M1274.78,652.62a2.73,2.73,0,0,1,.54-1.71,2.54,2.54,0,0,1,1.43-.94c.17-.34.43-.81.79-1.39a22.14,22.14,0,0,1,1.34-1.91,23.77,23.77,0,0,1,1.81-2.08,15.85,15.85,0,0,1,2.25-1.89,12.43,12.43,0,0,1,2.65-1.4,8.41,8.41,0,0,1,3-.54,7.62,7.62,0,0,1,2.37.33,4.69,4.69,0,0,1,1.67.91,3.82,3.82,0,0,1,1,1.4,4.57,4.57,0,0,1,.33,1.74,5.49,5.49,0,0,1-.21,1.53,5.3,5.3,0,0,1-1.22,2.29,9.37,9.37,0,0,1-2.1,1.73,13.7,13.7,0,0,1-2.62,1.23,28.68,28.68,0,0,1-5.57,1.32c-.88.12-1.63.21-2.27.27a4.9,4.9,0,0,0-.37,1.07,5.53,5.53,0,0,0-.15,1.25,2.42,2.42,0,0,0,1.08,2.11,5.15,5.15,0,0,0,3,.75,9,9,0,0,0,2.1-.24,12.23,12.23,0,0,0,1.91-.64,16.82,16.82,0,0,0,1.7-.84c.54-.31,1-.61,1.46-.9a14.85,14.85,0,0,1,1.6-1,3.05,3.05,0,0,1,1.35-.39c.39,0,.64.1.75.29a1.27,1.27,0,0,1,.16.62c0,.13,0,.25,0,.37s0,.21,0,.29a4.09,4.09,0,0,1-.47,1.22,3.77,3.77,0,0,1-.89,1.05,16,16,0,0,1-5,2.75,18,18,0,0,1-5.47.82c-.37,0-.82,0-1.32-.07a10.3,10.3,0,0,1-1.58-.28,9.1,9.1,0,0,1-1.62-.61,5.07,5.07,0,0,1-1.42-1.06,5.25,5.25,0,0,1-1-1.62,6.16,6.16,0,0,1-.38-2.32,11.57,11.57,0,0,1,.3-2.46,1,1,0,0,1-.57-.31A1.08,1.08,0,0,1,1274.78,652.62Zm14.67-6.49a.63.63,0,0,0,0-.21v-.21a1.08,1.08,0,0,0-.47-1,2,2,0,0,0-1.13-.32,4.23,4.23,0,0,0-2,.54,9.23,9.23,0,0,0-1.87,1.35,12,12,0,0,0-1.56,1.73,12.29,12.29,0,0,0-1,1.68,24,24,0,0,0,3.09-.46,12.36,12.36,0,0,0,2.45-.8,6.73,6.73,0,0,0,1.69-1.07A2.82,2.82,0,0,0,1289.45,646.13Z"/><path class="cls-3" d="M127,237.39l-17.76-22.66-15.57,26q4.1-14.67,8.2-29.34L80,208.51l22.85-4.81q1-9.22,2.06-18.45l6.33,17.39,22.69.47-17.4,7.8Z"/><path class="cls-3" d="M324,126.39l-17.76-22.66-15.57,26q4.1-14.67,8.2-29.34L277,97.51l22.85-4.81q1-9.23,2.06-18.45l6.33,17.39,22.69.47-17.4,7.8Z"/><path class="cls-3" d="M522,126.39l-17.76-22.66-15.57,26q4.1-14.67,8.2-29.34L475,97.51l22.85-4.81q1-9.23,2.06-18.45l6.33,17.39,22.69.47-17.4,7.8Z"/><path class="cls-3" d="M449,357.39l-17.76-22.66-15.57,26q4.1-14.67,8.2-29.34L402,328.51l22.85-4.81q1-9.22,2.06-18.45l6.33,17.39,22.69.47-17.4,7.8Z"/><path class="cls-3" d="M1538,253.39l-17.76-22.66-15.57,26q4.09-14.67,8.2-29.34L1491,224.51l22.85-4.81q1-9.22,2.06-18.45l6.33,17.39,22.69.47-17.4,7.8Z"/><path class="cls-3" d="M1749,138.39l-17.76-22.66-15.57,26q4.09-14.67,8.2-29.34L1702,109.51l22.85-4.81q1-9.23,2.06-18.45l6.33,17.39,22.69.47-17.4,7.8Z"/><path class="cls-3" d="M1374,397.39l-17.76-22.66-15.57,26q4.09-14.67,8.2-29.34L1327,368.51l22.85-4.81q1-9.22,2.06-18.45l6.33,17.39,22.69.47-17.4,7.8Z"/><path class="cls-3" d="M1361,166.39l-17.76-22.66-15.57,26q4.09-14.67,8.2-29.34L1314,137.51l22.85-4.81q1-9.22,2.06-18.45l6.33,17.39,22.69.47-17.4,7.8Z"/><circle class="cls-4" cx="984.27" cy="903.36" r="60"/><ellipse class="cls-2" cx="983.77" cy="1036.36" rx="26.5" ry="27"/><rect class="cls-5" x="126.27" y="129.36" width="356" height="55" rx="27.5"/><rect class="cls-5" x="1518.27" y="305.36" width="207" height="55" rx="27.5"/><rect class="cls-5" x="43.27" y="157.36" width="505" height="94" rx="47"/><path class="cls-4" d="M1063.55,1079.36H899c13.34-57.53,45.16-98,82.28-98S1050.21,1021.83,1063.55,1079.36Z"/><circle class="cls-6" cx="951.77" cy="883.86" r="5"/><circle class="cls-6" cx="1002.77" cy="883.86" r="5"/><rect class="cls-7" x="938.27" y="871.36" width="30" height="9" rx="4.5"/><rect class="cls-7" x="953.77" y="925.86" width="52" height="64" rx="26"/><rect class="cls-7" x="991.77" y="871.86" width="30" height="9" rx="4.5"/><rect class="cls-8" x="987.77" y="963.86" width="17" height="2" rx="1" transform="translate(31.41 1961.13) rotate(-90)"/><rect class="cls-8" x="995.27" y="875.36" width="17" height="2" rx="1" transform="translate(2007.54 1752.72) rotate(180)"/><rect class="cls-8" x="941.27" y="875.36" width="17" height="2" rx="1" transform="translate(1899.54 1752.72) rotate(180)"/><rect class="cls-9" x="921.27" y="811.36" width="17" height="2" rx="1" transform="translate(831.8 2043.14) rotate(-126.59)"/><rect class="cls-9" x="1030.27" y="811.36" width="17" height="2" rx="1" transform="translate(-260.07 1040.38) rotate(-47.98)"/><rect class="cls-9" x="972.77" y="797.86" width="17" height="2" rx="1" transform="translate(182.41 1780.13) rotate(-90)"/><rect class="cls-8" x="955.77" y="956.86" width="17" height="2" rx="1" transform="translate(6.41 1922.13) rotate(-90)"/><rect class="cls-8" x="963.77" y="965.86" width="17" height="2" rx="1" transform="translate(5.41 1939.13) rotate(-90)"/><rect class="cls-10" x="963.77" y="934.86" width="30" height="9" rx="4.5"/><rect class="cls-7" x="968.27" y="937.36" width="3" height="5" rx="1.5"/><rect class="cls-7" x="972.27" y="937.36" width="3" height="5" rx="1.5"/><rect class="cls-7" x="984.27" y="937.36" width="3" height="5" rx="1.5"/><rect class="cls-7" x="976.27" y="937.36" width="3" height="5" rx="1.5"/><path class="cls-11" d="M1045.27,835.36c-.82,2.95-22.29-4.64-61-5-42.17-.39-66.12,8.17-67,5-1-3.62,28.56-21,64-21S1046.27,831.79,1045.27,835.36Z"/></svg>
